<svg fill="none" height="434" viewBox="0 0 1067 434" width="1067" xmlns="http://www.w3.org/2000/svg">
	<path d="M-152 434L153.937 265.878M153.937 265.878L306.499 353.676M153.937 265.878L153.937 434L306.499 353.676M306.499 353.676L306.562 353.713M306.499 353.676L458.5 267.494M458.5 267.494L609.75 353.713L609.75 434M458.5 267.494L458.5 434M-2.81254 434L-2.81252 176.67M-2.81252 176.67L-151.313 91.58L-2.8125 1.00001L153.937 91.58M-2.81252 176.67L153.937 91.58M153.937 91.58L153.937 266.564M-150.625 91.58L-150.625 265.878L-2.81253 352.341M763.75 434L763.75 261.761L914.312 171.867M914.312 171.867L914.312 347.537L1069 434L1069 261.761L914.312 171.867Z"
				opacity="0.25"
				stroke="white" />
</svg>
