<svg width="601" height="232" viewBox="0 0 601 232" fill="none" xmlns="http://www.w3.org/2000/svg">
<path opacity="0.15" d="M42.9554 99.9673L1 75.5644V26.3067M42.9554 99.9673V50.7096M42.9554 99.9673L86.7781 75.5644M42.9554 99.9673L1 123.015V174.532M42.9554 99.9673V150.581M1 26.3067L42.9554 1L86.7781 26.3067M1 26.3067L42.9554 50.7096M86.7781 26.3067V75.5644M86.7781 26.3067L42.9554 50.7096M86.7781 75.5644V124.822M86.7781 75.5644L129.471 100.193M1 174.532L42.9554 150.581M1 174.532L42.9554 199.387L86.7781 174.532M42.9554 150.581L86.7781 174.532M86.7781 174.532L127.89 199.387L86.7781 224.693V174.532ZM86.7781 124.822L214.632 199.387M86.7781 124.822L129.471 100.193M214.632 199.387V248.192L172.165 224.693V174.758M214.632 199.387L257.551 174.532M172.165 75.5644V26.3067L127.89 50.7096L172.165 75.5644ZM172.165 75.5644L129.471 100.193M172.165 75.5644L214.632 100.193V150.581M172.165 75.5644V124.822M214.632 150.581L172.165 124.822M214.632 150.581L172.165 174.758M214.632 150.581L257.551 174.532M172.165 124.822V174.758M257.551 174.532L300.696 149.677M257.551 174.532V224.693L300.696 199.387L343.841 224.693L300.47 248.192L300.696 149.677M300.47 50.7096V100.193L343.841 124.822L300.696 149.677M300.47 50.7096L257.551 75.5644V124.822L300.696 149.677M300.47 50.7096L343.841 75.5644M343.841 75.5644V125.048M343.841 75.5644L384.953 50.7096L343.841 26.3067V75.5644ZM343.841 174.532L384.953 199.387L428.775 174.532M343.841 174.532L428.775 125.048M343.841 174.532V125.048M428.775 174.532V125.048M428.775 174.532L343.841 125.048M428.775 174.532L471.189 199.387L557.533 150.581M428.775 174.532V224.693L470.791 250L514.436 224.693V125.048M428.775 174.532L471.605 149.776M428.775 75.5644V26.3067L471.189 50.7096M428.775 75.5644L384.953 100.193L428.775 125.048M428.775 75.5644V125.048M428.775 125.048L471.605 100.32M428.775 125.048L471.605 149.776M600 174.532V124.822L557.218 100.207M600 174.532L557.533 199.387L471.605 149.776M600 174.532L557.533 150.581M557.533 50.7096L470.791 1L471.189 50.7096M557.533 50.7096V1L471.189 50.7096M557.533 50.7096V150.581M557.533 50.7096L514.436 75.5919M471.189 50.7096L514.436 75.5919M514.436 75.5919L557.218 100.207M514.436 75.5919V125.048M514.436 75.5919L471.605 100.32M557.218 100.207L514.436 125.048M471.605 100.32V149.776" stroke="#FEFEFE"/>
</svg>
