<svg width="834" height="187" viewBox="0 0 834 187" fill="none" xmlns="http://www.w3.org/2000/svg">
	<path opacity="0.22" d="M63.8571 150.008L0.999939 113.413V39.5456M63.8571 150.008V76.1407M63.8571 150.008L129.512 113.413M63.8571 150.008L0.999939 184.57V261.827M63.8571 150.008V225.909M0.999939 39.5456L63.8571 1.59521L129.512 39.5456M0.999939 39.5456L63.8571 76.1407M129.512 39.5456V113.413M129.512 39.5456L63.8571 76.1407M129.512 113.413V187.281M129.512 113.413L193.474 150.347M0.999939 261.827L63.8571 225.909M0.999939 261.827L63.8571 299.099L129.512 261.827M63.8571 225.909L129.512 261.827M129.512 261.827L191.105 299.099L129.512 337.05V261.827ZM129.512 187.281L321.06 299.099M129.512 187.281L193.474 150.347M321.06 299.099V372.289L257.436 337.05V262.165M321.06 299.099L385.361 261.827M257.436 113.413V39.5456L191.105 76.1407L257.436 113.413ZM257.436 113.413L193.474 150.347M257.436 113.413L321.06 150.347V225.909M257.436 113.413V187.281M321.06 225.909L257.436 187.281M321.06 225.909L257.436 262.165M321.06 225.909L385.361 261.827M257.436 187.281V262.165M385.361 261.827L450 224.554M385.361 261.827V337.05L450 299.099L514.639 337.05L449.662 372.289L450 224.554M449.662 76.1407V150.347L514.639 187.281L450 224.554M449.662 76.1407L385.361 113.413V187.281L450 224.554M449.662 76.1407L514.639 113.413M514.639 113.413V187.62M514.639 113.413L576.233 76.1407L514.639 39.5456V113.413ZM514.639 261.827L576.233 299.099L641.887 261.827M514.639 261.827L641.887 187.62M514.639 261.827V187.62M641.887 261.827V187.62M641.887 261.827L514.639 187.62M641.887 261.827L705.43 299.099L834.789 225.909M641.887 261.827V337.05L704.834 375L770.222 337.05V187.62M641.887 261.827L706.054 224.703M641.887 113.413V39.5456L705.43 76.1407M641.887 113.413L576.233 150.347L641.887 187.62M641.887 113.413V187.62M641.887 187.62L706.054 150.537M641.887 187.62L706.054 224.703M898.413 261.827V187.281L834.317 150.368M898.413 261.827L834.789 299.099L706.054 224.703M898.413 261.827L834.789 225.909M834.789 76.1407L704.834 1.59521L705.43 76.1407M834.789 76.1407V1.59521L705.43 76.1407M834.789 76.1407V225.909M834.789 76.1407L770.222 113.455M705.43 76.1407L770.222 113.455M770.222 113.455L834.317 150.368M770.222 113.455V187.62M770.222 113.455L706.054 150.537M834.317 150.368L770.222 187.62M706.054 150.537V224.703" stroke="#BFC9D9"/>
</svg>
