<svg width="244" height="114" viewBox="0 0 244 114" fill="none" xmlns="http://www.w3.org/2000/svg">
<g clip-path="url(#clip0_369_25580)">
<path d="M3.32 104.62C3.32 105.03 3.41 105.39 3.55 105.71C3.69 106.03 3.91 106.35 4.14 106.57C4.41 106.8 4.69 106.98 5.05 107.11C5.41 107.25 5.78 107.29 6.19 107.29C7.1 107.29 7.78 106.97 8.33 106.38C8.88 105.79 9.15 104.97 9.15 103.97C9.15 102.97 8.88 102.11 8.33 101.52C7.78 100.93 7.1 100.61 6.19 100.61C5.51 100.61 4.92 100.79 4.42 101.11C3.92 101.43 3.56 101.88 3.33 102.47V104.61L3.32 104.62ZM3.32 108.21C3.32 108.8 3.18 109.21 2.91 109.44C2.64 109.67 2.27 109.76 1.86 109.76H1.5C1.05 109.76 0.68 109.67 0.41 109.44C0.14 109.21 0 108.8 0 108.21V93.8099C0 93.8099 0.14 93.6699 0.36 93.5799C0.59 93.4899 0.9 93.4399 1.22 93.4399C1.45 93.4399 1.72 93.4899 1.95 93.5799C2.18 93.6699 2.4 93.8099 2.59 93.9899C2.77 94.1699 2.95 94.4399 3.09 94.8099C3.23 95.1699 3.27 95.5799 3.27 96.1299V99.9499C3.68 99.3599 4.18 98.9099 4.81 98.5899C5.45 98.2699 6.13 98.0899 6.95 98.0899C7.72 98.0899 8.4 98.2299 9.04 98.4999C9.68 98.7699 10.22 99.1799 10.72 99.6799C11.17 100.18 11.54 100.82 11.81 101.54C12.08 102.27 12.22 103.08 12.22 103.99C12.22 104.9 12.08 105.72 11.86 106.44C11.59 107.17 11.22 107.8 10.77 108.35C10.32 108.85 9.72 109.3 9.09 109.58C8.45 109.9 7.73 110.03 6.91 110.03C6 110.03 5.27 109.85 4.64 109.44C4.05 109.08 3.55 108.58 3.28 108.03V108.21H3.33H3.32Z" fill="#FDFCFD"/>
<path d="M16.99 113.3C16.67 113.39 16.35 113.39 15.9 113.39C15.49 113.39 15.08 113.34 14.67 113.25C14.26 113.16 13.85 113.02 13.53 112.84C13.17 112.66 12.89 112.43 12.71 112.16C12.53 111.89 12.48 111.57 12.53 111.21C12.58 110.85 12.8 110.44 13.17 110.03C13.71 110.26 14.22 110.44 14.71 110.53C15.16 110.62 15.57 110.62 16.03 110.58C16.48 110.53 16.85 110.35 17.17 110.03C17.35 109.85 17.49 109.67 17.58 109.49C17.67 109.35 17.76 109.22 17.76 109.13C17.81 108.99 17.81 108.9 17.81 108.86C17.54 108.81 17.31 108.77 17.17 108.63C16.99 108.54 16.85 108.36 16.76 108.13L12.85 99.0398C12.85 99.0398 12.9 98.8998 12.99 98.8098C13.08 98.7198 13.22 98.5798 13.4 98.4898C13.58 98.3998 13.76 98.3098 13.99 98.2198C14.22 98.1298 14.44 98.0798 14.72 98.0798C15.13 98.0798 15.45 98.1698 15.77 98.3998C16.09 98.6298 16.36 99.0398 16.54 99.7198L19.04 106.22L21.22 99.7198C21.45 99.0398 21.67 98.6298 21.99 98.3998C22.31 98.1698 22.67 98.0798 23.04 98.0798C23.27 98.0798 23.49 98.1298 23.72 98.2198C23.95 98.3098 24.13 98.3998 24.31 98.4898C24.45 98.5798 24.58 98.7198 24.72 98.8098C24.81 98.8998 24.86 98.9898 24.86 99.0398L20.73 109.9C20.59 110.22 20.46 110.54 20.28 110.85C20.1 111.17 19.87 111.53 19.6 111.8C19.33 112.12 18.96 112.39 18.6 112.66C18.01 112.98 17.55 113.16 17.01 113.3" fill="#FDFCFD"/>
<path d="M43.9399 105.07C43.9399 106.07 43.6699 106.89 43.1699 107.61C42.6699 108.34 41.9399 108.88 41.0799 109.25C40.1699 109.66 39.1299 109.84 37.9899 109.84C37.6699 109.84 37.2599 109.79 36.8099 109.79C36.3099 109.74 35.7199 109.61 34.8999 109.43C34.1299 109.25 33.3099 108.98 32.4499 108.57V104.71C33.2699 105.21 34.0399 105.62 34.7699 105.94C35.5399 106.26 36.3599 106.44 37.2199 106.44C38.0399 106.44 38.5799 106.3 38.8099 106.03C39.0399 105.76 39.1699 105.53 39.1699 105.26C39.1699 104.85 38.9399 104.49 38.5799 104.17C38.1699 103.85 37.5799 103.58 36.8099 103.26C35.9499 102.9 35.1699 102.49 34.5399 102.08C33.8999 101.63 33.3599 101.13 32.9499 100.44C32.5399 99.8 32.3099 99.03 32.3099 98.12C32.3099 97.21 32.5399 96.48 32.9499 95.8C33.3599 95.12 33.9999 94.57 34.8599 94.16C35.7199 93.75 36.7699 93.52 37.9999 93.52C38.8599 93.52 39.6799 93.61 40.4499 93.79C41.2199 93.97 41.8099 94.15 42.3099 94.38C42.8099 94.61 43.1299 94.74 43.3099 94.88V98.61C42.6699 98.16 41.9499 97.75 41.1699 97.38C40.3999 97.02 39.5299 96.83 38.6299 96.83C38.0399 96.83 37.6299 96.92 37.3599 97.15C37.0899 97.38 36.9499 97.65 36.9499 98.01C36.9499 98.33 37.0899 98.6 37.3599 98.83C37.6299 99.06 38.0899 99.33 38.7699 99.65C39.9999 100.24 40.9499 100.74 41.6799 101.19C42.4099 101.64 42.9999 102.19 43.4099 102.78C43.7699 103.42 43.9599 104.14 43.9599 105.05" fill="#FDFCFD"/>
<path d="M56.4799 109.11C56.1199 109.25 55.7999 109.38 55.3899 109.47C55.0299 109.56 54.5699 109.65 54.1199 109.74C53.6199 109.83 53.1199 109.83 52.5799 109.83C51.3099 109.83 50.2199 109.6 49.3499 109.19C48.4899 108.78 47.8099 108.24 47.3099 107.55C46.8099 106.91 46.4899 106.23 46.3099 105.55C46.1299 104.87 46.0399 104.28 46.0399 103.78C46.0399 103.28 46.1299 102.69 46.3099 102.01C46.4899 101.33 46.8099 100.69 47.2599 100.06C47.7099 99.4198 48.3999 98.8798 49.2599 98.4698C50.1199 98.0598 51.2099 97.8298 52.4899 97.8298C53.3499 97.8298 54.0299 97.8798 54.5799 98.0098C55.1299 98.1498 55.6699 98.2798 56.2199 98.5098V101.74C54.8599 101.33 53.8599 101.1 53.0799 101.1C52.3499 101.1 51.7199 101.33 51.1299 101.78C50.5799 102.23 50.2699 102.92 50.2699 103.82C50.2699 104.41 50.4099 104.96 50.6799 105.36C50.9499 105.77 51.3199 106.09 51.7699 106.27C52.1799 106.45 52.6299 106.59 53.0899 106.59C53.4999 106.59 53.9499 106.54 54.4999 106.41C55.0499 106.27 55.6799 106.09 56.4099 105.86V109.09H56.4999L56.4799 109.11Z" fill="#FDFCFD"/>
<path d="M70.8299 109.66H66.7399V103.21C66.7399 102.66 66.5999 102.16 66.3799 101.67C66.1499 101.22 65.6999 100.99 65.0199 100.99C64.4699 100.99 64.0199 101.17 63.6599 101.49C63.2499 101.85 62.8899 102.26 62.5199 102.81V109.63H58.4299V93.8198H62.5199V99.7298C63.1999 98.9998 63.8799 98.4998 64.5199 98.2298C65.1599 97.9598 65.8799 97.8198 66.6099 97.8198C69.3799 97.8198 70.7899 99.3598 70.7899 102.5V109.68H70.8399L70.8299 109.66Z" fill="#FDFCFD"/>
<path d="M85.69 109.66H81.6V103.39C81.6 102.75 81.51 102.21 81.28 101.71C81.05 101.26 80.6 100.98 79.92 100.98C79.6 100.98 79.28 101.03 79.06 101.16C78.79 101.3 78.56 101.43 78.38 101.66C78.15 101.84 78.02 102.07 77.88 102.25C77.74 102.43 77.61 102.61 77.47 102.84V109.66H73.38V98.0299H77.47V99.7099C78.11 99.0299 78.74 98.5299 79.42 98.2599C80.06 97.9899 80.78 97.8499 81.6 97.8499C84.37 97.8499 85.78 99.5299 85.78 102.85V109.67H85.69V109.66Z" fill="#FDFCFD"/>
<path d="M96.23 102.8C96.23 102.07 96.05 101.48 95.68 101.03C95.32 100.58 94.77 100.35 94.09 100.35C93.41 100.35 92.86 100.58 92.41 101.03C92 101.48 91.77 102.08 91.77 102.8H96.22H96.23ZM100.09 104.84H91.91C92.09 105.57 92.46 106.11 93.09 106.57C93.73 107.02 94.41 107.25 95.23 107.25C96.59 107.25 98.14 106.84 99.82 106.07V108.61C99.23 108.93 98.5 109.2 97.64 109.47C96.78 109.74 95.69 109.88 94.37 109.88C92.96 109.88 91.74 109.61 90.74 109.06C89.74 108.52 88.97 107.79 88.47 106.88C87.97 105.97 87.7 104.93 87.7 103.79C87.7 102.65 87.97 101.61 88.47 100.75C88.97 99.8398 89.74 99.1598 90.74 98.6098C91.74 98.1098 92.97 97.8398 94.37 97.8398C95.32 97.8398 96.23 98.0198 97.1 98.4298C97.96 98.8398 98.69 99.5198 99.28 100.43C99.87 101.34 100.14 102.52 100.14 104.02V104.84H100.09Z" fill="#FDFCFD"/>
<path d="M106.09 95.3499C106.09 95.8499 105.91 96.2099 105.59 96.5799C105.23 96.8999 104.82 97.0799 104.36 97.0799C104.04 97.0799 103.77 96.9899 103.5 96.8499C103.23 96.7099 103 96.4899 102.86 96.2099C102.72 95.9399 102.63 95.6599 102.63 95.3499C102.63 94.8999 102.81 94.4899 103.13 94.1199C103.45 93.7999 103.86 93.6199 104.36 93.6199C104.81 93.6199 105.22 93.7999 105.59 94.1199C105.91 94.4799 106.09 94.8899 106.09 95.3499ZM106.41 109.66H102.32V98.0299H106.41V109.66Z" fill="#FDFCFD"/>
<path d="M117.45 105.98V101.53C116.95 101.26 116.59 101.08 116.31 100.98C116.04 100.84 115.72 100.8 115.36 100.8C114.72 100.8 114.18 101.07 113.72 101.62C113.27 102.17 113.08 102.94 113.08 103.85C113.08 104.9 113.31 105.62 113.76 106.08C114.21 106.53 114.76 106.76 115.35 106.76C115.85 106.76 116.26 106.67 116.53 106.53C116.85 106.39 117.12 106.21 117.44 105.98M121.53 109.66H117.44V108.61C116.99 108.97 116.53 109.29 116.08 109.52C115.58 109.75 114.94 109.88 114.08 109.88C113.22 109.88 112.4 109.65 111.58 109.24C110.76 108.83 110.08 108.15 109.58 107.29C109.03 106.38 108.81 105.29 108.81 103.93C108.81 102.88 108.99 101.89 109.4 100.98C109.81 100.03 110.4 99.2999 111.26 98.7099C112.12 98.1199 113.12 97.8499 114.35 97.8499C115.12 97.8499 115.71 97.9399 116.21 98.0799C116.71 98.2199 117.12 98.4399 117.48 98.7199V93.8599H121.57V109.67H121.52L121.53 109.66Z" fill="#FDFCFD"/>
<path d="M132.22 102.8C132.22 102.07 132.04 101.48 131.67 101.03C131.31 100.58 130.76 100.35 130.08 100.35C129.4 100.35 128.85 100.58 128.4 101.03C127.99 101.48 127.76 102.08 127.76 102.8H132.21H132.22ZM136.04 104.84H127.86C128 105.57 128.41 106.11 129.04 106.57C129.68 107.02 130.36 107.25 131.18 107.25C132.59 107.25 134.09 106.84 135.77 106.07V108.61C135.18 108.93 134.45 109.2 133.59 109.47C132.73 109.74 131.64 109.88 130.32 109.88C128.87 109.88 127.69 109.61 126.69 109.06C125.69 108.52 124.92 107.79 124.42 106.88C123.92 105.97 123.69 104.93 123.69 103.79C123.69 102.65 123.92 101.61 124.42 100.75C124.92 99.8398 125.69 99.1598 126.69 98.6098C127.69 98.1098 128.92 97.8398 130.32 97.8398C131.27 97.8398 132.18 98.0198 133.05 98.4298C133.91 98.8398 134.64 99.5198 135.23 100.43C135.82 101.34 136.09 102.52 136.09 104.02V104.84H136.04Z" fill="#FDFCFD"/>
<path d="M148.26 98.6598L146.76 102.75C146.12 102.16 145.49 101.84 144.85 101.84C144.26 101.84 143.76 102.02 143.35 102.43C142.94 102.84 142.53 103.57 142.12 104.61V109.61H138.03V97.9798H142.12V100.8C142.39 100.12 142.85 99.4398 143.48 98.7998C144.12 98.1598 144.89 97.7998 145.8 97.7998C146.25 97.7998 146.66 97.8498 147.03 97.9798C147.35 98.1598 147.8 98.3898 148.26 98.6598Z" fill="#FDFCFD"/>
<path d="M159.39 96.1699H167.02V97.8899H161.3V102.03H166.84V103.75H161.3V107.93H167.2V109.66H159.39V96.1699Z" fill="#FDFCFD"/>
<path d="M174.56 96.1699H172.79V109.66H174.56V96.1699Z" fill="#FDFCFD"/>
<path d="M182.2 104.3H186.65C186.6 103.57 186.38 103.03 186.01 102.66C185.65 102.3 185.15 102.07 184.51 102.07C183.87 102.07 183.37 102.25 182.97 102.66C182.61 103.07 182.33 103.61 182.2 104.3ZM188.42 105.35H182.2C182.25 106.21 182.52 106.89 183.06 107.39C183.56 107.89 184.24 108.16 185.06 108.16C186.2 108.16 187.29 107.8 188.24 107.11V108.79C187.69 109.15 187.15 109.38 186.65 109.56C186.1 109.7 185.51 109.79 184.79 109.79C183.84 109.79 183.02 109.61 182.43 109.2C181.84 108.79 181.34 108.25 180.98 107.56C180.62 106.88 180.44 106.06 180.44 105.2C180.44 103.84 180.8 102.75 181.58 101.88C182.35 101.02 183.35 100.61 184.58 100.61C185.81 100.61 186.72 101.02 187.4 101.84C188.08 102.66 188.45 103.75 188.45 105.16V105.34L188.42 105.35Z" fill="#FDFCFD"/>
<path d="M200.73 107.62V109.35C199.87 109.67 198.96 109.85 198.14 109.85C196.73 109.85 195.64 109.44 194.78 108.62C193.96 107.8 193.55 106.71 193.55 105.3C193.55 103.89 193.96 102.76 194.78 101.89C195.6 101.03 196.64 100.62 198.01 100.62C198.46 100.62 198.87 100.67 199.24 100.76C199.6 100.85 200.06 101.03 200.6 101.26V103.12C199.69 102.53 198.87 102.26 198.1 102.26C197.28 102.26 196.65 102.53 196.15 103.12C195.6 103.67 195.38 104.39 195.38 105.26C195.38 106.17 195.65 106.9 196.2 107.44C196.75 107.99 197.52 108.26 198.43 108.26C199.11 108.21 199.88 107.99 200.75 107.62" fill="#FDFCFD"/>
<path d="M205.23 102.16L208.55 98.9299V100.79H211.32V102.33H208.55V106.69C208.55 107.69 208.96 108.23 209.78 108.23C210.42 108.23 211.05 108 211.78 107.59V109.23C211.1 109.59 210.37 109.82 209.6 109.82C208.78 109.82 208.15 109.59 207.6 109.09C207.42 108.95 207.28 108.77 207.19 108.59C207.05 108.41 206.96 108.18 206.92 107.91C206.83 107.64 206.83 107.09 206.83 106.27V102.32H205.28V102.14H205.23V102.16Z" fill="#FDFCFD"/>
<path d="M218.68 100.8V102.8L218.77 102.66C219.63 101.3 220.5 100.62 221.36 100.62C222.04 100.62 222.72 100.94 223.45 101.62L222.5 103.16C221.91 102.57 221.32 102.3 220.77 102.3C220.18 102.3 219.72 102.57 219.32 103.12C218.91 103.67 218.68 104.3 218.68 105.03V109.66H216.91V100.8H218.68Z" fill="#FDFCFD"/>
<path d="M228.45 100.8H230.22V109.66H228.45V100.8ZM229.31 97.03C229.58 97.03 229.86 97.12 230.08 97.35C230.31 97.53 230.4 97.8 230.4 98.08C230.4 98.36 230.31 98.63 230.08 98.81C229.85 99.04 229.63 99.13 229.31 99.13C229.04 99.13 228.81 99.04 228.58 98.81C228.35 98.58 228.26 98.36 228.26 98.08C228.26 97.8 228.35 97.58 228.58 97.35C228.81 97.17 229.03 97.03 229.31 97.03Z" fill="#FDFCFD"/>
<path d="M243.17 107.62V109.35C242.31 109.67 241.4 109.85 240.58 109.85C239.17 109.85 238.08 109.44 237.22 108.62C236.4 107.8 235.99 106.71 235.99 105.3C235.99 103.89 236.4 102.76 237.22 101.89C238.04 101.03 239.08 100.62 240.4 100.62C240.85 100.62 241.26 100.67 241.63 100.76C241.99 100.85 242.45 101.03 242.99 101.26V103.12C242.08 102.53 241.26 102.26 240.49 102.26C239.67 102.26 239.04 102.53 238.54 103.12C238.04 103.67 237.77 104.39 237.77 105.26C237.77 106.17 238.04 106.9 238.59 107.44C239.14 107.99 239.91 108.26 240.82 108.26C241.5 108.21 242.27 107.99 243.18 107.62" fill="#FDFCFD"/>
<path d="M243.17 80.04H0V80.6H243.17V80.04Z" fill="#FDFCFD"/>
<path d="M87.25 55.53V60.45H64.5L78.26 38.15H65.24V33.22H87.7L73.97 55.53H87.25Z" fill="#FDFCFD"/>
<path d="M97.11 40.79C103.82 40.79 106.77 46.01 106.25 52.39H92.71C93.34 54.82 95.58 56.12 98.72 56.12C100.81 56.12 103.2 55.41 104.8 54.25V59.21C102.86 60.4 100.25 60.89 97.97 60.89C91.93 60.89 87.26 56.71 87.26 50.89C87.26 45.07 91.92 40.78 97.11 40.78M92.86 48.69H100.88C100.69 47.12 99.42 45.41 97.04 45.41C95.06 45.41 93.5 46.64 92.86 48.69Z" fill="#FDFCFD"/>
<path d="M135.11 58.66C135.11 65.75 129.48 68.73 123.62 68.73C120.94 68.73 118.32 68.06 116.72 67.05V61.34C118.73 63.02 121.16 63.61 123.51 63.61C126.53 63.61 129.29 62.19 129.29 59.02V57.49C128.25 58.72 126.23 59.92 123.58 59.92C118.66 59.92 114.48 55.89 114.48 50.37C114.48 44.85 118.66 40.78 123.58 40.78C126.23 40.78 128.24 42.05 129.29 43.24V41.23H135.11V58.65V58.66ZM124.82 45.83C122.36 45.83 120.27 47.7 120.27 50.38C120.27 53.06 122.36 54.97 124.82 54.97C127.28 54.97 129.37 53.07 129.37 50.38C129.37 47.69 127.28 45.83 124.82 45.83Z" fill="#FDFCFD"/>
<path d="M135.88 50.8698C135.88 45.0498 140.62 40.7998 146.21 40.7998C151.8 40.7998 156.58 45.0498 156.58 50.8698C156.58 56.6898 151.84 60.8998 146.21 60.8998C140.58 60.8998 135.88 56.6798 135.88 50.8698ZM141.62 50.8698C141.62 53.8198 143.6 55.9098 146.21 55.9098C148.82 55.9098 150.8 53.8198 150.8 50.8698C150.8 47.9198 148.86 45.7998 146.21 45.7998C143.56 45.7998 141.62 47.8898 141.62 50.8698Z" fill="#FDFCFD"/>
<path d="M153.06 33.6199H156.12V34.2899H154.95V37.3399H154.22V34.2899H153.05V33.6199H153.06ZM160.37 33.6199V37.3399H159.64V36.1399C159.64 35.7899 159.64 35.3799 159.65 34.9599L159.56 35.2099L158.76 37.3399H158.16L157.36 35.2099C157.32 35.1099 157.29 35.0199 157.26 34.9299C157.27 35.3699 157.27 35.7799 157.27 36.1399V37.3399H156.56V33.6199H157.48L158.21 35.5599C158.31 35.8099 158.4 36.0699 158.47 36.2999C158.54 36.0699 158.63 35.7899 158.73 35.4999L159.44 33.6199H160.36H160.37Z" fill="#FDFCFD"/>
<path d="M113.31 60.4499H107.49V41.2399H113.31V60.4499ZM110.4 32.1599C108.57 32.1599 107.08 33.6499 107.08 35.4799C107.08 37.3099 108.57 38.7999 110.4 38.7999C112.23 38.7999 113.72 37.3099 113.72 35.4799C113.72 33.6499 112.23 32.1599 110.4 32.1599Z" fill="#FDFCFD"/>
<path d="M67.46 25.0899C68.25 24.7699 68.92 24.1399 69.25 23.2899C69.89 21.6599 69.07 19.8199 67.46 19.1299L23.47 0.299921C22.5 -0.110079 21.36 -0.120079 20.32 0.389921C18.54 1.26992 17.78 3.39992 18.52 5.23992L26.02 24.7599C26.02 24.7799 26.05 24.8199 26.06 24.8499C26.94 26.9099 29.33 27.8699 31.39 26.9899C33.45 26.1099 34.41 23.7199 33.53 21.6599L29.42 11.4599C29.3 11.1799 29.58 10.8999 29.86 11.0099L57.02 21.8899C57.3 21.9999 57.3 22.3999 57.02 22.5199L1.46996 45.2499C0.899965 45.4999 0.419965 45.9599 0.169965 46.5799C-0.330035 47.8299 0.279965 49.2499 1.51996 49.7499L48.47 68.5999C48.92 68.7799 49.43 68.7899 49.91 68.5799C50.87 68.1699 51.31 67.0599 50.9 66.1099L39.83 43.2299C39.49 42.4299 38.56 42.0399 37.74 42.3699C36.91 42.6999 36.51 43.6399 36.84 44.4699L45.32 62.4999C45.45 62.7799 45.16 63.0699 44.88 62.9499L9.60996 47.8899C9.32996 47.7699 9.33996 47.3699 9.61996 47.2599L67.44 25.0899H67.46Z" fill="#9460A4"/>
<path d="M179.43 60.67H177.82L169.26 49.54V60.66H167.47V46.49H169.08L177.65 57.62V46.5H179.43V60.67Z" fill="#FDFCFD"/>
<path d="M185.81 50.8499C187.12 50.8499 188.2 51.3099 189.05 52.2399C189.89 53.1599 190.32 54.3599 190.33 55.8299C190.33 55.8599 190.32 56.0599 190.3 56.4499H182.74C182.85 57.4099 183.21 58.1499 183.81 58.6599C184.41 59.1699 185.14 59.4199 186 59.4199C187.11 59.4199 188.09 59.0399 188.96 58.2799L189.84 59.4099C188.8 60.3799 187.49 60.8699 185.9 60.8699C184.46 60.8699 183.29 60.4099 182.39 59.4799C181.48 58.5599 181.03 57.3499 181.03 55.8599C181.03 54.3699 181.48 53.1899 182.38 52.2499C183.28 51.3099 184.42 50.8499 185.8 50.8499H185.81ZM185.78 52.3199C184.96 52.3199 184.28 52.5699 183.75 53.0799C183.22 53.5899 182.89 54.2599 182.77 55.1099H188.65C188.54 54.2499 188.23 53.5699 187.72 53.0699C187.21 52.5699 186.57 52.3199 185.78 52.3199Z" fill="#FDFCFD"/>
<path d="M198.34 52.56H194.3V57.24C194.3 57.93 194.46 58.45 194.8 58.8C195.13 59.14 195.57 59.32 196.11 59.32C196.78 59.32 197.43 59.1 198.07 58.67L198.85 59.91C197.98 60.54 197.02 60.86 195.97 60.86C194.92 60.86 194.09 60.56 193.51 59.96C192.93 59.36 192.64 58.46 192.64 57.26V52.55H190.59V51.04H192.64V48.03H194.3V51.04H198.34V52.55V52.56Z" fill="#FDFCFD"/>
<path d="M211.06 58.9298L213.79 51.0498H215.52L212.06 60.6598H210.09L207.34 52.8398L204.6 60.6598H202.66L199.2 51.0498H200.97L203.69 58.9098L206.43 51.0498H208.3L211.06 58.9298Z" fill="#FDFCFD"/>
<path d="M216.99 52.2799C217.95 51.3299 219.16 50.8499 220.62 50.8499C222.08 50.8499 223.29 51.3299 224.26 52.2799C225.23 53.2299 225.71 54.4299 225.71 55.8599C225.71 57.2899 225.23 58.4799 224.26 59.4399C223.29 60.3899 222.08 60.8699 220.62 60.8699C219.16 60.8699 217.95 60.3899 216.99 59.4399C216.03 58.4899 215.54 57.2899 215.54 55.8599C215.54 54.4299 216.02 53.2399 216.99 52.2799ZM220.62 52.4099C219.65 52.4099 218.84 52.7399 218.2 53.3899C217.56 54.0399 217.23 54.8599 217.23 55.8599C217.23 56.8599 217.55 57.6899 218.2 58.3399C218.84 58.9899 219.65 59.3199 220.62 59.3199C221.59 59.3199 222.39 58.9899 223.04 58.3399C223.69 57.6899 224.01 56.8599 224.01 55.8599C224.01 54.8599 223.69 54.0399 223.04 53.3899C222.39 52.7399 221.59 52.4099 220.62 52.4099Z" fill="#FDFCFD"/>
<path d="M231.62 50.8498C232.33 50.8498 232.91 50.9498 233.38 51.1598L232.98 52.7898C232.51 52.5398 231.97 52.4198 231.33 52.4198C230.59 52.4198 229.99 52.6798 229.52 53.2098C229.05 53.7398 228.83 54.4398 228.83 55.3098V60.6598H227.18V51.0498H228.81V52.3098C229.15 51.8398 229.56 51.4798 230.04 51.2198C230.52 50.9598 231.05 50.8398 231.62 50.8398V50.8498Z" fill="#FDFCFD"/>
<path d="M236.18 54.8999H237.49L241.06 51.0599H243.14L238.85 55.5899L243.2 60.6699H241.11L237.48 56.3999H236.18V60.6699H234.53V46.1099H236.18V54.9099V54.8999Z" fill="#FDFCFD"/>
</g>
<defs>
<clipPath id="clip0_369_25580">
<rect width="243.21" height="113.39" fill="white"/>
</clipPath>
</defs>
</svg>
