<svg width="198" height="64" viewBox="0 0 198 64" fill="none" xmlns="http://www.w3.org/2000/svg">
<path d="M108.172 32.1527C108.172 34.1373 108.172 35.4293 107.364 36.1831C106.822 36.6613 106.143 36.9996 105.256 36.9996C104.516 36.9996 103.699 36.7306 103.088 36.1831C102.279 35.4293 102.279 34.1373 102.279 32.1527V15.2919C102.279 11.8075 101.944 9.90022 101.195 8.60025C99.9054 6.34663 97.4708 5.19319 95.0282 5.19319C91.6473 5.19319 88.2583 7.1005 86.6326 10.108C85.6175 11.9461 85.0056 13.4458 85.0056 20.8926V32.1527C85.0056 34.1373 84.9368 35.4293 84.1292 36.1831C83.5781 36.6613 82.9066 36.9996 82.0211 36.9996C81.2809 36.9996 80.4641 36.6613 79.9222 36.1831C79.1133 35.4293 79.1133 34.1373 79.1133 32.1527V4.70836C79.1133 2.80104 79.1133 1.57034 79.8535 0.824462C80.2658 0.478161 81.006 0 81.9603 0C83.0441 0 83.9918 0.685942 84.2574 1.30129C84.7994 2.25495 84.8681 3.13935 84.8681 6.07758C86.7 3.68411 89.6765 0 95.9825 0C100.249 0 103.432 1.57034 105.866 4.37005C108.172 7.03125 108.172 11.3307 108.172 13.5843V32.1527Z" fill="#0B3B6B"/>
<path d="M142.194 15.57C142.057 13.5841 141.92 11.469 140.431 8.87837C138.943 6.28511 136.165 4.3698 132.303 4.3698C127.562 4.3698 124.921 7.30803 123.631 9.69218C122.478 11.8073 122.211 13.9916 122.005 15.57H142.194ZM121.936 19.6617C122.143 29.1543 127.355 32.6306 132.913 32.6306C138.737 32.6306 140.775 29.422 142.805 26.284C143.21 25.6686 143.889 24.5072 145.308 24.5072C146.598 24.5072 147.545 25.5994 147.545 26.7608C147.545 27.853 146.934 29.0144 146.392 29.8988C144.835 32.5001 141.387 36.9994 132.645 36.9994C121.127 36.9994 115.905 28.8759 115.905 18.4296C115.905 8.19243 121.196 0.00107538 132.509 0.00107538C146.392 0.00107538 148.224 12.7689 148.224 15.839C148.224 19.6617 145.377 19.6617 143.002 19.6617H121.936Z" fill="#0B3B6B"/>
<path d="M170.53 4.64723C163.821 4.64723 159.967 10.1694 159.967 18.4993C159.967 26.969 163.89 32.3606 170.53 32.3606C177.171 32.3606 180.965 26.8997 180.965 18.4993C180.965 9.69257 176.828 4.64723 170.53 4.64723ZM170.462 36.9998C159.425 36.9998 153.936 28.8071 153.936 19.1852C153.936 6.83159 160.164 0.000137952 170.462 0.000137952C179.34 0.000137952 186.995 5.46237 186.995 18.4993C186.995 31.5375 179.27 36.9998 170.462 36.9998Z" fill="#0B3B6B"/>
<path d="M189.49 5.0088C189.49 5.25654 189.49 5.4177 189.391 5.51094C189.337 5.56422 189.244 5.61882 189.123 5.61882C189.03 5.61882 188.93 5.5802 188.861 5.51094C188.754 5.4177 188.754 5.2632 188.754 5.0088V0.594795H187.514C187.292 0.594795 187.161 0.594795 187.086 0.510884C187.032 0.456275 186.984 0.379023 186.984 0.301771C186.984 0.232511 187.032 0.147267 187.078 0.09399C187.161 0.000755071 187.292 0.000755466 187.514 0.000755466H190.738C190.96 0.000755466 191.091 0.000755071 191.168 0.09399C191.222 0.147267 191.267 0.224519 191.267 0.301771C191.267 0.371031 191.222 0.456275 191.168 0.510884C191.083 0.594795 190.96 0.594795 190.738 0.594795H189.49V5.0088Z" fill="#0B3B6B"/>
<path d="M191.771 0.618236C191.771 0.000222001 192.13 0.000221972 192.322 0.000221972C192.79 0.000221972 192.859 0.000221729 193.019 0.479716L194.161 3.91342C194.252 4.18381 194.344 4.46085 194.429 4.73123C194.52 4.43021 194.544 4.36894 194.718 3.84416L195.852 0.502359C196.022 0.0162052 196.03 0.000221972 196.488 0.000221972C196.986 0.000221972 197.009 0.140074 197.009 0.618236V5.14812C197.009 5.24935 197.001 5.61829 196.656 5.61829C196.306 5.61829 196.306 5.264 196.306 5.17876V0.903269L194.881 5.03224C194.726 5.47977 194.673 5.61829 194.405 5.61829C194.13 5.61829 194.06 5.54903 193.886 5.03224L192.475 0.826017V5.07087C192.475 5.264 192.475 5.61829 192.124 5.61829C191.795 5.61829 191.771 5.32527 191.771 5.07886V0.618236Z" fill="#0B3B6B"/>
<path d="M92.0637 61.8402C92.0637 62.7246 92.0637 63.3 91.7029 63.6369C91.461 63.8487 91.1583 63.9992 90.7644 63.9992C90.434 63.9992 90.0705 63.8793 89.7982 63.6369C89.4374 63.3 89.4374 62.7246 89.4374 61.8402V54.3254C89.4374 52.7724 89.2881 51.9226 88.9537 51.3432C88.3787 50.339 87.2949 49.8249 86.2058 49.8249C84.699 49.8249 83.1883 50.6746 82.464 52.0159C82.0119 52.8337 81.7397 53.5023 81.7397 56.8215V61.8402C81.7397 62.7246 81.7093 63.3 81.3484 63.6369C81.1039 63.8487 80.8039 63.9992 80.41 63.9992C80.0796 63.9992 79.7148 63.8487 79.4742 63.6369C79.1134 63.3 79.1134 62.7246 79.1134 61.8402V49.6077C79.1134 48.7593 79.1134 48.2105 79.4438 47.8789C79.6275 47.7231 79.9566 47.5113 80.3822 47.5113C80.8647 47.5113 81.2876 47.8163 81.4066 48.0907C81.6471 48.5156 81.6789 48.9098 81.6789 50.2191C82.4944 49.1536 83.8214 47.5113 86.6314 47.5113C88.5334 47.5113 89.9516 48.2106 91.0367 49.4586C92.0637 50.644 92.0637 52.5606 92.0637 53.5649V61.8402Z" fill="#1FB04E"/>
<path d="M107.229 54.4496C107.167 53.5652 107.111 52.6222 106.443 51.4674C105.78 50.3126 104.542 49.4588 102.82 49.4588C100.708 49.4588 99.5317 50.7668 98.9568 51.8297C98.4426 52.7727 98.3237 53.7463 98.2312 54.4496H107.229ZM98.2007 56.273C98.2933 60.5032 100.617 62.0522 103.092 62.0522C105.688 62.0522 106.596 60.6231 107.502 59.2245C107.682 58.9502 107.984 58.432 108.617 58.432C109.192 58.432 109.614 58.9182 109.614 59.4363C109.614 59.9225 109.342 60.4406 109.1 60.8348C108.407 61.9936 106.866 63.9995 102.974 63.9995C97.8399 63.9995 95.5176 60.3793 95.5176 55.7242C95.5176 51.161 97.8717 47.5116 102.913 47.5116C109.1 47.5116 109.917 53.2016 109.917 54.5694C109.917 56.273 108.648 56.273 107.593 56.273H98.2007Z" fill="#1FB04E"/>
<path d="M113.908 45.2015C113.908 44.0427 113.908 43.7097 114.118 43.3115C114.267 43.0371 114.694 42.7054 115.203 42.7054C116.533 42.7054 116.533 43.9215 116.533 45.047V47.8786H117.921C118.559 47.8786 119.552 47.8786 119.552 48.8216C119.552 49.5196 118.826 49.794 118.013 49.794H116.533V59.1614C116.533 60.7464 116.627 61.8399 118.102 61.8399C118.342 61.8399 119.433 61.6574 119.643 61.6574C120.157 61.6574 120.547 61.9931 120.547 62.6004C120.547 63.6367 119.221 63.911 117.591 63.911C113.908 63.911 113.908 61.3231 113.908 59.3758V49.794H112.911C111.734 49.794 111.734 48.8789 111.734 48.8216C111.734 47.8786 112.819 47.8786 113.153 47.8786H113.908V45.2015Z" fill="#1FB04E"/>
<path d="M128.763 61.809C128.429 62.9957 128.158 64 126.922 64C125.772 64 125.504 63.2382 125.079 61.9009L121.065 49.9455C120.855 49.2143 120.761 49.0025 120.761 48.6669C120.761 48.1221 121.246 47.5121 121.969 47.5121C122.905 47.5121 123.089 48.1488 123.419 49.1837L126.892 60.5343L129.941 49.5193C130.274 48.3339 130.514 47.5121 131.63 47.5121C132.751 47.5121 132.987 48.3339 133.32 49.5193L136.368 60.5343L139.842 49.1837C140.176 48.1221 140.356 47.5121 141.292 47.5121C141.954 47.5121 142.5 48.0901 142.5 48.6669C142.5 49.0025 142.438 49.2143 142.196 49.9455L138.182 61.9009C137.761 63.2382 137.489 64 136.342 64C135.104 64 134.831 62.9957 134.498 61.809L131.63 51.4359L128.763 61.809Z" fill="#1FB04E"/>
<path d="M151.478 49.5823C148.491 49.5823 146.768 52.0437 146.768 55.7558C146.768 59.5305 148.518 61.9319 151.478 61.9319C154.436 61.9319 156.128 59.4985 156.128 55.7558C156.128 51.8293 154.288 49.5823 151.478 49.5823ZM151.447 63.9991C146.528 63.9991 144.081 60.3483 144.081 56.0595C144.081 50.5546 146.858 47.5112 151.447 47.5112C155.403 47.5112 158.815 49.9446 158.815 55.7558C158.815 61.5657 155.372 63.9991 151.447 63.9991Z" fill="#1FB04E"/>
<path d="M162.441 49.1843C162.441 48.4531 162.441 47.5114 163.591 47.5114C164.707 47.5114 164.707 48.4531 164.707 49.1843V50.4004C165.766 48.7594 166.578 47.5114 168.511 47.5114C169.809 47.5114 171.618 48.1787 171.618 49.3082C171.618 50.0687 170.955 50.5242 170.565 50.5242C169.899 50.5242 169.538 50.0687 168.391 50.0687C165.581 50.0687 165.066 53.1401 165.066 56.759V62.481C165.066 63.8169 164.164 63.9994 163.772 63.9994C163.406 63.9994 163.077 63.8795 162.837 63.6371C162.441 63.3001 162.441 62.7527 162.441 61.8403V49.1843Z" fill="#1FB04E"/>
<path d="M177.032 57.5829V61.7772C177.032 62.8441 177.032 63.9988 175.676 63.9988C174.407 63.9988 174.407 62.9679 174.407 61.6893V44.0426C174.407 42.9491 174.407 41.4879 175.733 41.4879C176.338 41.4879 176.76 41.8209 176.941 42.3071C177.032 42.5814 177.032 43.1608 177.032 43.7975V54.5688L183.312 48.4845C184.247 47.5722 184.37 47.4496 184.822 47.4496C185.516 47.4496 186.061 48.0597 186.061 48.6351C186.061 49.0946 185.726 49.3969 185.212 49.8831L181.137 53.7457L186.18 61.0793C186.935 62.1754 186.995 62.4818 186.995 62.7814C186.995 63.5127 186.241 63.9988 185.666 63.9988C185.063 63.9988 184.73 63.6046 184.159 62.7242L179.328 55.4492L177.032 57.5829Z" fill="#1FB04E"/>
<path d="M56.4665 34.252H48.2532V52.2317C48.2532 52.9243 47.9426 53.541 47.4549 53.9539C47.3849 54.0191 47.3135 54.0817 47.2329 54.1364C46.8892 54.3734 46.4914 54.4813 46.083 54.476C46.0631 54.4773 46.0433 54.48 46.0235 54.48C45.4234 54.48 44.8789 54.2389 44.4784 53.85C44.2656 53.6728 44.07 53.4624 43.9034 53.216L20.3978 18.6671V32.1023L20.3964 32.1089L20.3978 32.1143C20.3978 33.3556 19.3998 34.3612 18.1667 34.3612H9.94285C9.0639 36.9971 6.59094 38.9004 3.68314 38.9004V59.2696C3.68314 61.8815 5.78469 63.9993 8.37661 63.9993H58.0697C60.6616 63.9993 62.7632 61.8815 62.7632 59.2696V38.9004C59.8157 38.9004 57.3124 36.9438 56.4665 34.252Z" fill="#1FB04E"/>
<path d="M9.84769 29.8668H15.9369V11.7432C15.9369 10.5578 16.8463 9.58952 18.0001 9.50295C18.8672 9.41637 19.8202 9.87056 20.4215 10.7523L43.7937 45.1054V32.0032C43.7937 30.7618 44.7903 29.7562 46.0235 29.7562H56.6423C57.623 27.3175 59.9955 25.594 62.7632 25.594V4.73065C62.7632 2.11874 60.6616 0.000976562 58.0697 0.000976562H8.3766C5.78469 0.000976562 3.68314 2.11874 3.68314 4.73065V25.594C6.49181 25.594 8.89472 27.3694 9.84769 29.8668Z" fill="#1FB04E"/>
<path d="M3.68366 35.9573C4.93534 35.9573 6.04031 35.3246 6.70646 34.3616C7.12149 33.7609 7.36601 33.0337 7.36601 32.2479C7.36601 31.3422 7.04218 30.511 6.50424 29.8664C5.82884 29.0539 4.81507 28.5358 3.68366 28.5358C2.37119 28.5358 1.21996 29.2337 0.567023 30.2793C0.210155 30.8507 0 31.5233 0 32.2479C0 32.778 0.113669 33.2814 0.31325 33.7383C0.884238 35.0423 2.17953 35.9573 3.68366 35.9573Z" fill="#1FB04E"/>
<path d="M65.4934 29.7653C64.8193 29.0127 63.8465 28.5359 62.764 28.5359C61.6855 28.5359 60.7153 29.0087 60.0412 29.7573C59.4464 30.4153 59.0803 31.289 59.0803 32.248C59.0803 32.9859 59.2984 33.6732 59.6685 34.2525C60.3241 35.2755 61.4661 35.9574 62.7627 35.9574C64.0937 35.9574 65.2607 35.2395 65.9071 34.1686C66.2467 33.6079 66.445 32.9513 66.445 32.248C66.445 31.293 66.0829 30.4246 65.4934 29.7653Z" fill="#1FB04E"/>
</svg>
