<svg width="55" height="60" viewBox="0 0 55 60" fill="none" xmlns="http://www.w3.org/2000/svg">
<path d="M28.2085 59.0277C27.9539 59.2314 27.6738 59.3333 27.3682 59.3333C27.0627 59.3333 26.7571 59.2314 26.4516 59.0277C26.0951 58.875 25.2293 58.4675 23.8543 57.8055C18.4562 55.412 14.433 53.1967 11.7849 51.1597C11.1738 50.8541 10.8682 50.3703 10.8682 49.7083V42.0694C10.8682 38.8611 11.7594 35.9456 13.5418 33.3229C15.3242 30.7002 17.6668 28.7777 20.5696 27.5555C20.2131 27.1481 19.8566 26.6898 19.5002 26.1805C18.5835 24.6018 18.1252 22.8703 18.1252 20.9861C18.1252 18.3379 19.0418 16.059 20.8752 14.1493C22.7085 12.2395 24.911 11.2719 27.4828 11.2465C30.0546 11.221 32.2316 12.2013 34.014 14.1875C35.7455 16.0717 36.6113 18.3379 36.6113 20.9861C36.6113 22.8703 36.1275 24.6018 35.1599 26.1805C34.8543 26.6898 34.5233 27.1481 34.1668 27.5555C37.0696 28.7777 39.3995 30.7002 41.1564 33.3229C42.9134 35.9456 43.7918 38.8611 43.7918 42.0694V46.0416C44.5048 45.2777 45.1159 44.5138 45.6252 43.75C46.9492 41.5601 48.0059 39.1666 48.7953 36.5694C49.5847 33.9722 50.0812 31.9097 50.2849 30.3819C50.4886 28.8541 50.6923 26.7916 50.896 24.1944C51.2015 20.324 51.1252 16.4027 50.6668 12.4305C48.5279 12.1759 45.8543 11.6157 42.646 10.75C39.4377 9.88422 36.8659 8.99301 34.9307 8.07635C34.065 7.66894 33.0719 7.21061 31.9516 6.70135C29.6599 5.68283 28.1321 4.91894 27.3682 4.40968C26.6043 4.91894 25.0766 5.68283 22.7849 6.70135C21.1043 7.46524 20.1113 7.92357 19.8057 8.07635C17.8705 8.99301 15.286 9.88422 12.0522 10.75C8.81845 11.6157 6.15757 12.1759 4.06961 12.4305C3.56035 16.4027 3.4585 20.324 3.76405 24.1944C3.96776 26.4861 4.15873 28.3321 4.33697 29.7326C4.51521 31.1331 4.90988 32.9791 5.521 35.2708C6.13211 37.5625 6.94692 39.6759 7.96544 41.6111C8.16914 42.0185 8.19461 42.4386 8.04183 42.8715C7.88905 43.3044 7.60896 43.6354 7.20155 43.8645C6.79414 44.0937 6.37401 44.1319 5.94113 43.9791C5.50826 43.8263 5.18998 43.5463 4.98627 43.1388C3.91683 41.0509 3.03836 38.7592 2.35086 36.2638C1.66336 33.7685 1.23049 31.7951 1.05225 30.3437C0.874005 28.8923 0.708496 26.9444 0.555718 24.5C0.148311 19.9166 0.301089 15.3333 1.01405 10.75C1.06498 10.3426 1.23049 9.9988 1.51058 9.71871C1.79067 9.43862 2.13442 9.29857 2.54183 9.29857C3.8659 9.24764 6.33581 8.76385 9.95155 7.84718C13.5673 6.93051 16.3937 6.01385 18.4307 5.09718C18.7872 4.89348 19.7803 4.43514 21.4099 3.72218C24.0071 2.55089 25.5603 1.73607 26.0696 1.27774C26.4261 0.87033 26.859 0.666626 27.3682 0.666626C27.8775 0.666626 28.2849 0.87033 28.5904 1.27774C29.0997 1.73607 30.6529 2.55089 33.2502 3.72218C34.5233 4.23144 35.5418 4.68977 36.3057 5.09718C38.3428 6.01385 41.1564 6.93051 44.7467 7.84718C48.337 8.76385 50.7941 9.24764 52.1182 9.29857C52.5256 9.29857 52.8821 9.43862 53.1877 9.71871C53.4932 9.9988 53.6715 10.3426 53.7224 10.75C54.3844 15.2824 54.5372 19.8657 54.1807 24.5C53.977 27.1481 53.7606 29.287 53.5314 30.9166C53.3022 32.5463 52.7548 34.787 51.889 37.6388C51.0233 40.4907 49.8775 43.0879 48.4515 45.4305C47.2803 47.3148 45.5742 49.1226 43.3335 50.8541C43.0279 51.2106 42.646 51.3888 42.1877 51.3888H42.1113C41.3474 51.3888 40.8381 51.0069 40.5835 50.243C40.4816 49.9884 40.4562 49.7083 40.5071 49.4027V42.0694C40.5071 39.0648 39.5522 36.4166 37.6425 34.125C35.7328 31.8333 33.3011 30.4328 30.3474 29.9236C29.5835 29.7708 29.1506 29.2997 29.0488 28.5104C28.9469 27.721 29.227 27.1481 29.8891 26.7916C30.9585 26.2824 31.7988 25.5057 32.4099 24.4618C33.021 23.4178 33.3265 22.2592 33.3265 20.9861C33.3265 19.1527 32.7409 17.625 31.5696 16.4027C30.4492 15.1296 29.0997 14.493 27.521 14.493C25.8404 14.493 24.4145 15.1296 23.2432 16.4027C22.021 17.6759 21.4099 19.2037 21.4099 20.9861C21.4099 22.2592 21.7154 23.4178 22.3266 24.4618C22.9377 25.5057 23.7525 26.2824 24.771 26.7916C25.484 27.1481 25.7768 27.721 25.6495 28.5104C25.5222 29.2997 25.0766 29.7708 24.3127 29.9236C21.359 30.4328 18.9272 31.8333 17.0175 34.125C15.1078 36.4166 14.1529 39.0648 14.1529 42.0694V48.868C16.5974 50.6504 20.2895 52.6365 25.2293 54.8263C26.146 55.2338 26.859 55.5648 27.3682 55.8194C27.8775 55.5648 28.5904 55.2338 29.5071 54.8263C32.1043 53.706 34.1159 52.7384 35.5418 51.9236C35.9492 51.7199 36.3694 51.6817 36.8022 51.809C37.2351 51.9363 37.5661 52.2037 37.7953 52.6111C38.0245 53.0185 38.0627 53.4386 37.9099 53.8715C37.7571 54.3044 37.5025 54.6226 37.146 54.8263C35.5164 55.6921 33.4284 56.6851 30.8821 57.8055C29.4562 58.4675 28.565 58.875 28.2085 59.0277Z" fill="#3A2456"/>
</svg>
