<svg width="29" height="23" viewBox="0 0 29 23" fill="none" xmlns="http://www.w3.org/2000/svg">
<path d="M23.1042 22.4999C22.9097 22.4999 22.7335 22.4227 22.5755 22.2682C22.4175 22.1137 22.3385 21.9207 22.3385 21.6889V18.9471C22.3385 17.0419 21.7674 15.3749 20.625 13.9461C19.4826 12.5172 18.0243 11.6483 16.25 11.3394C15.8854 11.2621 15.6788 11.0304 15.6302 10.6442C15.5573 10.2838 15.6788 10.0006 15.9948 9.79463C16.6267 9.4342 17.1311 8.92573 17.5078 8.26923C17.8845 7.61272 18.0608 6.89829 18.0365 6.12593C18.0608 5.01889 17.7205 4.06631 17.0156 3.26821C16.3108 2.47011 15.4479 2.04531 14.4271 1.99382C13.4063 2.04531 12.5434 2.46367 11.8385 3.2489C11.1337 4.03413 10.7934 4.98027 10.8177 6.08732C10.8177 7.81225 11.5104 9.06089 12.8958 9.83325C13.2118 9.98772 13.3455 10.2709 13.2969 10.6828C13.224 11.069 13.0174 11.2879 12.6771 11.3394C10.9271 11.6998 9.48698 12.588 8.35677 14.004C7.22656 15.42 6.66146 17.0677 6.66146 18.9471V21.6889C6.66146 21.9207 6.58247 22.1137 6.42448 22.2682C6.26649 22.4227 6.09028 22.4999 5.89583 22.4999C5.67708 22.4999 5.48872 22.4227 5.33073 22.2682C5.17274 22.1137 5.09375 21.9207 5.09375 21.6889V18.9471C5.09375 16.9904 5.6224 15.214 6.67969 13.6178C7.73698 12.0216 9.11632 10.8759 10.8177 10.1808C9.74826 9.04802 9.23785 7.68352 9.28646 6.08732C9.23785 4.56835 9.71181 3.24247 10.7083 2.10967C11.7049 0.976883 12.9444 0.384742 14.4271 0.333252C15.9097 0.384742 17.1554 0.976883 18.1641 2.10967C19.1727 3.24247 19.6528 4.58122 19.6042 6.12593C19.6528 7.67065 19.1545 9.0094 18.1094 10.1422C19.8351 10.8373 21.2326 11.983 22.3021 13.5792C23.3715 15.1754 23.9063 16.9647 23.9063 18.9471V21.6889C23.9063 21.9207 23.8273 22.1137 23.6693 22.2682C23.5113 22.4227 23.3229 22.4999 23.1042 22.4999ZM27.7344 20.4918H26.1667C25.9479 20.4918 25.7656 20.4081 25.6198 20.2408C25.474 20.0734 25.401 19.8739 25.401 19.6422C25.401 19.4362 25.474 19.2496 25.6198 19.0822C25.7656 18.9149 25.9479 18.8312 26.1667 18.8312H26.9323V17.5182C26.9323 16.0765 26.4887 14.7892 25.6016 13.6564C24.7144 12.5236 23.6024 11.8285 22.2656 11.5711C21.901 11.5196 21.6944 11.3007 21.6458 10.9146C21.5729 10.5284 21.7066 10.2452 22.0469 10.065C23.092 9.44707 23.6146 8.4945 23.6146 7.20724C23.6389 6.46062 23.4262 5.79125 22.9766 5.19911C22.5269 4.60696 21.9618 4.24653 21.2813 4.1178C20.7951 3.98908 20.5885 3.65439 20.6615 3.11374C20.7101 2.90778 20.8194 2.74043 20.9896 2.61171C21.1597 2.48298 21.3542 2.44436 21.5729 2.49585C22.6424 2.72756 23.5113 3.28752 24.1797 4.17573C24.8481 5.06394 25.1701 6.08732 25.1458 7.24585C25.1701 8.43014 24.8056 9.48569 24.0521 10.4125C25.3889 11.0047 26.4644 11.9508 27.2786 13.2509C28.0929 14.5511 28.5 15.9735 28.5 17.5182V19.6422C28.5 19.8739 28.421 20.0734 28.263 20.2408C28.105 20.4081 27.9288 20.4918 27.7344 20.4918ZM2.83333 20.4918H1.26563C1.07118 20.4918 0.894965 20.4081 0.736979 20.2408C0.578993 20.0734 0.5 19.8739 0.5 19.6422V17.5182C0.5 15.9735 0.907118 14.5511 1.72135 13.2509C2.53559 11.9508 3.61111 11.0047 4.94792 10.4125C4.17014 9.48569 3.80556 8.41726 3.85417 7.20724C3.82986 6.07444 4.15191 5.05751 4.82031 4.15642C5.48872 3.25534 6.35764 2.70182 7.42708 2.49585C7.64583 2.44436 7.84635 2.48298 8.02865 2.61171C8.21094 2.74043 8.31424 2.92065 8.33854 3.15236C8.46007 3.64152 8.26563 3.96333 7.75521 4.1178C7.05035 4.24653 6.47309 4.60696 6.02344 5.19911C5.57378 5.79125 5.36111 6.46062 5.38542 7.20724C5.38542 8.4945 5.90799 9.44707 6.95313 10.065C7.2934 10.2452 7.42708 10.5284 7.35417 10.9146C7.30556 11.3007 7.09896 11.5196 6.73438 11.5711C5.39757 11.8285 4.28559 12.5236 3.39844 13.6564C2.51128 14.7892 2.06771 16.0765 2.06771 17.5182V18.8312H2.83333C3.05208 18.8312 3.23438 18.9149 3.38021 19.0822C3.52604 19.2496 3.59896 19.4362 3.59896 19.6422C3.59896 19.8739 3.52604 20.0734 3.38021 20.2408C3.23438 20.4081 3.05208 20.4918 2.83333 20.4918Z" fill="#97A6BE"/>
</svg>
