<svg fill="none" height="96" viewBox="0 0 96 96" width="96" xmlns="http://www.w3.org/2000/svg">
	<rect fill="#F9A4A4" fill-opacity="0.2" height="96" rx="48" width="96" />
	<path
		d="M48.9062 69.7708C48.7153 69.9236 48.5052 70 48.276 70C48.0469 70 47.8177 69.9236 47.5885 69.7708C47.3212 69.6562 46.6719 69.3507 45.6406 68.8542C41.592 67.059 38.5747 65.3976 36.5885 63.8698C36.1302 63.6406 35.901 63.2778 35.901 62.7812V57.0521C35.901 54.6458 36.5694 52.4592 37.9062 50.4922C39.2431 48.5252 41 47.0833 43.1771 46.1667C42.9097 45.8611 42.6424 45.5174 42.375 45.1354C41.6875 43.9514 41.3437 42.6528 41.3437 41.2396C41.3437 39.2535 42.0312 37.5443 43.4062 36.112C44.7812 34.6797 46.4332 33.954 48.362 33.9349C50.2908 33.9158 51.9236 34.651 53.2604 36.1406C54.559 37.5538 55.2083 39.2535 55.2083 41.2396C55.2083 42.6528 54.8455 43.9514 54.1198 45.1354C53.8906 45.5174 53.6424 45.8611 53.375 46.1667C55.5521 47.0833 57.2995 48.5252 58.6172 50.4922C59.9349 52.4592 60.5937 54.6458 60.5937 57.0521V60.0312C61.1285 59.4583 61.5868 58.8854 61.9687 58.3125C62.9618 56.6701 63.7543 54.875 64.3464 52.9271C64.9384 50.9792 65.3108 49.4323 65.4635 48.2865C65.6163 47.1406 65.7691 45.5938 65.9219 43.6458C66.151 40.7431 66.0937 37.8021 65.75 34.8229C64.1458 34.6319 62.1406 34.2118 59.7344 33.5625C57.3281 32.9132 55.3993 32.2448 53.9479 31.5573C53.2986 31.2517 52.5538 30.908 51.7135 30.526C49.9948 29.7622 48.849 29.1892 48.276 28.8073C47.7031 29.1892 46.5573 29.7622 44.8385 30.526C43.5781 31.099 42.8333 31.4427 42.6042 31.5573C41.1528 32.2448 39.2144 32.9132 36.7891 33.5625C34.3637 34.2118 32.3681 34.6319 30.8021 34.8229C30.4201 37.8021 30.3437 40.7431 30.5729 43.6458C30.7257 45.3646 30.8689 46.7491 31.0026 47.7995C31.1363 48.8498 31.4323 50.2344 31.8906 51.9531C32.349 53.6719 32.9601 55.2569 33.724 56.7083C33.8767 57.0139 33.8958 57.329 33.7812 57.6536C33.6667 57.9783 33.4566 58.2266 33.151 58.3984C32.8455 58.5703 32.5304 58.599 32.2057 58.4844C31.8811 58.3698 31.6424 58.1597 31.4896 57.8542C30.6875 56.2882 30.0286 54.5694 29.513 52.6979C28.9974 50.8264 28.6727 49.3464 28.5391 48.2578C28.4054 47.1693 28.2812 45.7083 28.1667 43.875C27.8611 40.4375 27.9757 37 28.5104 33.5625C28.5486 33.2569 28.6727 32.9991 28.8828 32.7891C29.0929 32.579 29.3507 32.474 29.6562 32.474C30.6493 32.4358 32.5017 32.0729 35.2135 31.3854C37.9253 30.6979 40.0451 30.0104 41.5729 29.3229C41.8403 29.1701 42.5851 28.8264 43.8073 28.2917C45.7552 27.4132 46.9201 26.8021 47.3021 26.4583C47.5694 26.1528 47.8941 26 48.276 26C48.658 26 48.9635 26.1528 49.1927 26.4583C49.5747 26.8021 50.7396 27.4132 52.6875 28.2917C53.6424 28.6736 54.4062 29.0174 54.9792 29.3229C56.5069 30.0104 58.6172 30.6979 61.3099 31.3854C64.0026 32.0729 65.8455 32.4358 66.8385 32.474C67.1441 32.474 67.4115 32.579 67.6406 32.7891C67.8698 32.9991 68.0035 33.2569 68.0417 33.5625C68.5382 36.9618 68.6528 40.3993 68.3854 43.875C68.2326 45.8611 68.0703 47.4653 67.8984 48.6875C67.7266 49.9097 67.316 51.5903 66.6667 53.7292C66.0174 55.8681 65.158 57.816 64.0885 59.5729C63.2101 60.9861 61.9306 62.342 60.25 63.6406C60.0208 63.908 59.7344 64.0417 59.3906 64.0417H59.3333C58.7604 64.0417 58.3785 63.7552 58.1875 63.1823C58.1111 62.9913 58.092 62.7812 58.1302 62.5521V57.0521C58.1302 54.7986 57.4141 52.8125 55.9818 51.0938C54.5495 49.375 52.7257 48.3247 50.5104 47.9427C49.9375 47.8281 49.6128 47.4748 49.5365 46.8828C49.4601 46.2908 49.6701 45.8611 50.1667 45.5938C50.9687 45.2118 51.599 44.6293 52.0573 43.8464C52.5156 43.0634 52.7448 42.1944 52.7448 41.2396C52.7448 39.8646 52.3056 38.7188 51.4271 37.8021C50.5868 36.8472 49.5747 36.3698 48.3906 36.3698C47.1302 36.3698 46.0608 36.8472 45.1823 37.8021C44.2656 38.7569 43.8073 39.9028 43.8073 41.2396C43.8073 42.1944 44.0365 43.0634 44.4948 43.8464C44.9531 44.6293 45.5642 45.2118 46.3281 45.5938C46.8628 45.8611 47.0825 46.2908 46.987 46.8828C46.8915 47.4748 46.5573 47.8281 45.9844 47.9427C43.7691 48.3247 41.9453 49.375 40.513 51.0938C39.0807 52.8125 38.3646 54.7986 38.3646 57.0521V62.151C40.1979 63.4878 42.967 64.9774 46.6719 66.6198C47.3594 66.9253 47.8941 67.1736 48.276 67.3646C48.658 67.1736 49.1927 66.9253 49.8802 66.6198C51.8281 65.7795 53.3368 65.0538 54.4062 64.4427C54.7118 64.2899 55.0269 64.2613 55.3516 64.3568C55.6762 64.4523 55.9245 64.6528 56.0964 64.9583C56.2682 65.2639 56.2969 65.579 56.1823 65.9036C56.0677 66.2283 55.8767 66.467 55.6094 66.6198C54.3871 67.2691 52.8212 68.0139 50.9115 68.8542C49.842 69.3507 49.1736 69.6562 48.9062 69.7708Z"
		fill="#D25151" />
</svg>
