<svg fill="none" height="318" viewBox="0 0 889 318" width="889" xmlns="http://www.w3.org/2000/svg">
	<path d="M1 316.5L223.5 194M223.5 194L334.454 257.973M223.5 194V316.5L334.454 257.973M334.454 257.973L334.5 258M334.454 257.973L445 195.178M445 195.178V66L330 129.5L445 195.178ZM445 195.178L555 258V316.5M445 195.178V316.5M109.5 316.5V129M109.5 129L1.5 67L109.5 1L223.5 67M109.5 129L223.5 67M223.5 67V194.5M2 67V194L109.5 257M667 316.5V191L776.5 125.5M776.5 125.5V253.5L889 316.5V191L776.5 125.5Z"
				opacity="0.4"
				stroke="#BFC9D9" />
</svg>
