<svg width="54" height="60" viewBox="0 0 54 60" fill="none" xmlns="http://www.w3.org/2000/svg">
<path d="M1.76615 60C1.34949 60 0.971882 59.8307 0.63334 59.4922C0.294799 59.1536 0.125528 58.776 0.125528 58.3594V50.9375C0.0734443 45.4688 1.63594 40.5208 4.81303 36.0938C7.99011 31.6667 12.1568 28.5938 17.313 26.875C13.9797 23.8542 12.313 20 12.313 15.3125C12.2609 11.25 13.6281 7.72135 16.4146 4.72656C19.201 1.73177 22.6516 0.15625 26.7662 0C30.8807 0.15625 34.3573 1.73177 37.1958 4.72656C40.0344 7.72135 41.4016 11.276 41.2974 15.3906C41.4016 19.8698 39.7609 23.6719 36.3755 26.7969C38.5109 27.474 40.5943 28.4635 42.6255 29.7656C42.9901 30.026 43.2115 30.3776 43.2896 30.8203C43.3677 31.263 43.3026 31.6927 43.0943 32.1094C42.8339 32.474 42.4693 32.7083 42.0005 32.8125C41.5318 32.9167 41.1151 32.8385 40.7505 32.5781C38.1464 30.8594 35.3078 29.7135 32.2349 29.1406C31.4537 29.0365 31.0109 28.5938 30.9068 27.8125C30.7505 27.0312 31.037 26.4583 31.7662 26.0938C33.7453 25 35.2818 23.5026 36.3755 21.6016C37.4693 19.7005 37.9901 17.6302 37.938 15.3906C38.0422 12.1615 37.0005 9.375 34.813 7.03125C32.6255 4.6875 29.9432 3.46354 26.7662 3.35938C23.6412 3.46354 20.9979 4.6875 18.8365 7.03125C16.675 9.375 15.6203 12.1354 15.6724 15.3125C15.6203 17.6042 16.1672 19.7135 17.313 21.6406C18.4589 23.5677 20.0214 25.0521 22.0005 26.0938C22.6776 26.5104 22.9641 27.1094 22.8599 27.8906C22.7037 28.6719 22.2609 29.1146 21.5318 29.2188C16.2714 30.1562 11.9354 32.6693 8.52396 36.7578C5.11251 40.8464 3.43282 45.5729 3.4849 50.9375V58.3594C3.4849 58.776 3.31563 59.1536 2.97709 59.4922C2.63855 59.8307 2.2349 60 1.76615 60ZM34.5005 50.4688C34.188 50.7812 33.7974 50.9375 33.3287 50.9375C32.8599 50.9375 32.4693 50.7812 32.1568 50.4688L24.7349 43.0469C24.4224 42.7344 24.2662 42.3568 24.2662 41.9141C24.2662 41.4714 24.4224 41.0677 24.7349 40.7031C25.0995 40.3906 25.5031 40.2344 25.9458 40.2344C26.3885 40.2344 26.7662 40.3906 27.0787 40.7031L33.3287 46.875L51.063 29.2188C51.3755 28.8542 51.7531 28.6719 52.1958 28.6719C52.6385 28.6719 53.0422 28.8542 53.4068 29.2188C53.7193 29.5312 53.8755 29.9089 53.8755 30.3516C53.8755 30.7943 53.7193 31.1979 53.4068 31.5625L34.5005 50.4688ZM52.2349 60C51.7662 60 51.3625 59.8307 51.024 59.4922C50.6854 59.1536 50.5162 58.776 50.5162 58.3594V50.7812C50.5162 47.8125 49.9432 45.026 48.7974 42.4219C48.5891 42.0052 48.576 41.5885 48.7583 41.1719C48.9406 40.7552 49.2401 40.4427 49.6568 40.2344C50.0734 40.026 50.5031 40.013 50.9458 40.1953C51.3885 40.3776 51.688 40.6771 51.8443 41.0938C53.1984 44.2708 53.8755 47.5 53.8755 50.7812V58.3594C53.8755 58.776 53.7063 59.1536 53.3677 59.4922C53.0292 59.8307 52.6516 60 52.2349 60Z" fill="#009530"/>
</svg>
