<svg width="247" height="80" viewBox="0 0 247 80" fill="none" xmlns="http://www.w3.org/2000/svg">
    <path d="M135.214 40.1908C135.214 42.6715 135.214 44.2865 134.205 45.2288C133.527 45.8265 132.678 46.2494 131.569 46.2494C130.644 46.2494 129.623 45.9131 128.86 45.2288C127.849 44.2865 127.849 42.6715 127.849 40.1908V19.1148C127.849 14.7594 127.429 12.3752 126.494 10.7503C124.882 7.93327 121.838 6.49147 118.785 6.49147C114.559 6.49147 110.323 8.87561 108.291 12.635C107.022 14.9325 106.257 16.8072 106.257 26.1157V40.1908C106.257 42.6715 106.171 44.2865 105.161 45.2288C104.472 45.8265 103.633 46.2494 102.526 46.2494C101.601 46.2494 100.58 45.8265 99.9025 45.2288C98.8914 44.2865 98.8914 42.6715 98.8914 40.1908V5.88544C98.8914 3.5013 98.8914 1.96292 99.8166 1.03058C100.332 0.5977 101.257 0 102.45 0C103.805 0 104.989 0.857425 105.322 1.62661C105.999 2.81868 106.085 3.92418 106.085 7.59696C108.375 4.60513 112.095 0 119.978 0C125.311 0 129.289 1.96292 132.333 5.46255C135.214 8.78904 135.214 14.1633 135.214 16.9804V40.1908Z"
          fill="white"/>
    <path d="M177.743 19.4624C177.571 16.98 177.399 14.3362 175.539 11.0979C173.678 7.85636 170.206 5.46223 165.378 5.46223C159.452 5.46223 156.151 9.13501 154.538 12.1152C153.097 14.7591 152.764 17.4895 152.506 19.4624H177.743ZM152.42 24.577C152.678 36.4428 159.194 40.7882 166.141 40.7882C173.421 40.7882 175.968 36.7774 178.506 32.8549C179.012 32.0857 179.861 30.6339 181.635 30.6339C183.248 30.6339 184.431 31.9992 184.431 33.451C184.431 34.8162 183.667 36.268 182.99 37.3735C181.044 40.625 176.733 46.2491 165.806 46.2491C151.409 46.2491 144.881 36.0948 144.881 23.037C144.881 10.2405 151.495 0.00134422 165.636 0.00134422C182.99 0.00134422 185.28 15.9611 185.28 19.7987C185.28 24.577 181.721 24.577 178.752 24.577H152.42Z"
          fill="white"/>
    <path d="M213.162 5.80903C204.776 5.80903 199.958 12.7117 199.958 23.124C199.958 33.7112 204.862 40.4507 213.162 40.4507C221.463 40.4507 226.206 33.6246 226.206 23.124C226.206 12.1157 221.035 5.80903 213.162 5.80903ZM213.076 46.2496C199.281 46.2496 192.419 36.0087 192.419 23.9815C192.419 8.53947 200.204 0.000172439 213.076 0.000172439C224.174 0.000172439 233.743 6.82795 233.743 23.124C233.743 39.4218 224.086 46.2496 213.076 46.2496Z"
          fill="white"/>
    <path d="M236.862 6.26099C236.862 6.57066 236.862 6.77211 236.738 6.88866C236.671 6.95525 236.555 7.02351 236.403 7.02351C236.287 7.02351 236.162 6.97523 236.076 6.88866C235.942 6.77211 235.942 6.57898 235.942 6.26099V0.743492H234.392C234.115 0.743492 233.951 0.743492 233.857 0.638603C233.789 0.570342 233.73 0.473777 233.73 0.377213C233.73 0.290638 233.789 0.184083 233.847 0.117487C233.951 0.000943832 234.115 0.000944331 234.392 0.000944331H238.422C238.699 0.000944331 238.863 0.000943832 238.959 0.117487C239.027 0.184083 239.083 0.280649 239.083 0.377213C239.083 0.463788 239.027 0.570342 238.959 0.638603C238.853 0.743492 238.699 0.743492 238.422 0.743492H236.862V6.26099Z"
          fill="white"/>
    <path d="M239.713 0.772793C239.713 0.00027746 240.162 0.000277464 240.402 0.000277464C240.987 0.000277464 241.073 0.000277102 241.273 0.599643L242.7 4.89177C242.814 5.22974 242.93 5.57604 243.036 5.91402C243.15 5.53775 243.179 5.46117 243.397 4.80519L244.815 0.627947C245.026 0.0202565 245.036 0.000277464 245.61 0.000277464C246.232 0.000277464 246.261 0.175093 246.261 0.772793V6.43514C246.261 6.56167 246.251 7.02285 245.819 7.02285C245.382 7.02285 245.382 6.57998 245.382 6.47343V1.12908L243.601 6.29029C243.407 6.8497 243.341 7.02285 243.006 7.02285C242.662 7.02285 242.575 6.93627 242.357 6.29029L240.594 1.03252V6.33857C240.594 6.57998 240.594 7.02285 240.154 7.02285C239.743 7.02285 239.713 6.65657 239.713 6.34856V0.772793Z"
          fill="white"/>
    <path d="M115.079 77.3003C115.079 78.4058 115.079 79.1251 114.628 79.5463C114.326 79.811 113.948 79.9991 113.455 79.9991C113.042 79.9991 112.588 79.8493 112.248 79.5463C111.796 79.1251 111.796 78.4058 111.796 77.3003V67.9069C111.796 65.9656 111.61 64.9034 111.192 64.1792C110.473 62.9239 109.118 62.2812 107.757 62.2812C105.873 62.2812 103.985 63.3434 103.08 65.02C102.515 66.0422 102.174 66.878 102.174 71.027V77.3003C102.174 78.4058 102.136 79.1251 101.685 79.5463C101.38 79.811 101.005 79.9991 100.512 79.9991C100.099 79.9991 99.6432 79.811 99.3425 79.5463C98.8915 79.1251 98.8915 78.4058 98.8915 77.3003V62.0098C98.8915 60.9493 98.8915 60.2633 99.3045 59.8488C99.5342 59.654 99.9456 59.3893 100.478 59.3893C101.081 59.3893 101.609 59.7705 101.758 60.1135C102.059 60.6446 102.098 61.1374 102.098 62.774C103.118 61.4421 104.776 59.3893 108.289 59.3893C110.666 59.3893 112.439 60.2634 113.796 61.8234C115.079 63.3051 115.079 65.7009 115.079 66.9563V77.3003Z"
          fill="white"/>
    <path d="M134.037 68.0621C133.959 66.9566 133.888 65.7778 133.053 64.3344C132.224 62.8909 130.678 61.8237 128.525 61.8237C125.885 61.8237 124.414 63.4586 123.696 64.7872C123.053 65.966 122.904 67.183 122.789 68.0621H134.037ZM122.751 70.3413C122.866 75.6291 125.771 77.5654 128.865 77.5654C132.11 77.5654 133.245 75.7789 134.377 74.0308C134.602 73.6878 134.98 73.0402 135.771 73.0402C136.49 73.0402 137.017 73.6478 137.017 74.2955C137.017 74.9032 136.677 75.5508 136.374 76.0437C135.509 77.4921 133.582 79.9995 128.717 79.9995C122.3 79.9995 119.397 75.4743 119.397 69.6554C119.397 63.9514 122.339 59.3896 128.641 59.3896C136.374 59.3896 137.395 66.5021 137.395 68.2119C137.395 70.3414 135.809 70.3413 134.491 70.3413H122.751Z"
          fill="white"/>
    <path d="M142.384 56.502C142.384 55.0535 142.384 54.6373 142.647 54.1395C142.834 53.7965 143.367 53.382 144.004 53.382C145.666 53.382 145.666 54.902 145.666 56.3089V59.8485H147.4C148.198 59.8485 149.439 59.8485 149.439 61.0272C149.439 61.8996 148.532 62.2426 147.516 62.2426H145.666V73.9519C145.666 75.9331 145.783 77.3 147.627 77.3C147.927 77.3 149.29 77.0719 149.553 77.0719C150.196 77.0719 150.683 77.4915 150.683 78.2507C150.683 79.546 149.026 79.8889 146.989 79.8889C142.384 79.8889 142.384 76.654 142.384 74.2199V62.2426H141.139C139.667 62.2426 139.667 61.0988 139.667 61.0272C139.667 59.8485 141.023 59.8485 141.441 59.8485H142.384V56.502Z"
          fill="white"/>
    <path d="M160.954 77.2614C160.536 78.7448 160.197 80.0001 158.652 80.0001C157.215 80.0001 156.879 79.0478 156.349 77.3762L151.331 62.4321C151.069 61.518 150.951 61.2533 150.951 60.8337C150.951 60.1528 151.558 59.3903 152.461 59.3903C153.631 59.3903 153.861 60.1861 154.274 61.4797L158.614 75.668L162.426 61.8993C162.842 60.4175 163.143 59.3903 164.537 59.3903C165.938 59.3903 166.234 60.4175 166.65 61.8993L170.46 75.668L174.802 61.4797C175.22 60.1528 175.445 59.3903 176.614 59.3903C177.442 59.3903 178.124 60.1128 178.124 60.8337C178.124 61.2533 178.047 61.518 177.744 62.4321L172.727 77.3762C172.201 79.0478 171.861 80.0001 170.427 80.0001C168.879 80.0001 168.539 78.7448 168.122 77.2614L164.537 64.2951L160.954 77.2614Z"
          fill="white"/>
    <path d="M189.347 61.978C185.613 61.978 183.46 65.0548 183.46 69.6949C183.46 74.4132 185.648 77.415 189.347 77.415C193.044 77.415 195.159 74.3733 195.159 69.6949C195.159 64.7867 192.859 61.978 189.347 61.978ZM189.309 79.999C183.159 79.999 180.101 75.4355 180.101 70.0745C180.101 63.1934 183.572 59.3891 189.309 59.3891C194.254 59.3891 198.518 62.4309 198.518 69.6949C198.518 76.9572 194.214 79.999 189.309 79.999Z"
          fill="white"/>
    <path d="M203.051 61.4806C203.051 60.5665 203.051 59.3894 204.489 59.3894C205.883 59.3894 205.883 60.5665 205.883 61.4806V63.0006C207.206 60.9495 208.222 59.3894 210.638 59.3894C212.26 59.3894 214.522 60.2236 214.522 61.6354C214.522 62.5861 213.693 63.1555 213.205 63.1555C212.373 63.1555 211.922 62.5861 210.488 62.5861C206.975 62.5861 206.332 66.4253 206.332 70.9489V78.1013C206.332 79.7712 205.204 79.9993 204.715 79.9993C204.257 79.9993 203.846 79.8495 203.545 79.5464C203.051 79.1252 203.051 78.441 203.051 77.3005V61.4806Z"
          fill="white"/>
    <path d="M221.29 71.9788V77.2216C221.29 78.5552 221.29 79.9986 219.594 79.9986C218.008 79.9986 218.008 78.71 218.008 77.1117V55.0534C218.008 53.6865 218.008 51.8601 219.665 51.8601C220.422 51.8601 220.949 52.2763 221.176 52.884C221.29 53.227 221.29 53.9512 221.29 54.747V68.2111L229.139 60.6058C230.309 59.4654 230.462 59.3122 231.027 59.3122C231.895 59.3122 232.575 60.0747 232.575 60.794C232.575 61.3684 232.157 61.7463 231.515 62.354L226.421 67.1822L232.724 76.3492C233.668 77.7194 233.744 78.1023 233.744 78.4769C233.744 79.391 232.8 79.9986 232.081 79.9986C231.328 79.9986 230.912 79.5058 230.198 78.4053L224.159 69.3116L221.29 71.9788Z"
          fill="white"/>
    <path d="M70.5829 42.8152H60.3164V65.2898C60.3164 66.1555 59.9281 66.9264 59.3185 67.4425C59.2309 67.5241 59.1417 67.6023 59.0409 67.6706C58.6114 67.9669 58.1141 68.1018 57.6035 68.0951C57.5788 68.0968 57.554 68.1001 57.5292 68.1001C56.7791 68.1001 56.0984 67.7988 55.5978 67.3126C55.3318 67.0912 55.0873 66.8281 54.8791 66.5201L25.4971 23.3342V40.1281L25.4955 40.1364L25.4971 40.143C25.4971 41.6947 24.2497 42.9517 22.7083 42.9517H12.4285C11.3299 46.2466 8.23866 48.6257 4.60391 48.6257V74.0871C4.60391 77.352 7.23084 79.9992 10.4707 79.9992H72.587C75.8269 79.9992 78.4538 77.352 78.4538 74.0871V48.6257C74.7695 48.6257 71.6403 46.18 70.5829 42.8152Z"
          fill="white"/>
    <path d="M12.3096 37.3337H19.9211V14.6793C19.9211 13.1976 21.0578 11.9872 22.5001 11.879C23.5839 11.7707 24.7751 12.3385 25.5269 13.4406L54.742 56.3819V40.0042C54.742 38.4525 55.9877 37.1955 57.5292 37.1955H70.8026C72.0285 34.1471 74.9942 31.9927 78.4538 31.9927V5.9136C78.4538 2.64872 75.8269 0.00152588 72.587 0.00152588H10.4707C7.23084 0.00152588 4.60391 2.64872 4.60391 5.9136V31.9927C8.11475 31.9927 11.1184 34.212 12.3096 37.3337Z"
          fill="white"/>
    <path d="M4.60457 44.9468C6.16916 44.9468 7.55037 44.156 8.38306 42.9522C8.90184 42.2014 9.20749 41.2923 9.20749 40.31C9.20749 39.1779 8.80271 38.139 8.13028 37.3332C7.28602 36.3176 6.01882 35.67 4.60457 35.67C2.96397 35.67 1.52494 36.5424 0.708776 37.8493C0.262693 38.5636 0 39.4043 0 40.31C0 40.9727 0.142086 41.602 0.391562 42.1731C1.10529 43.803 2.72441 44.9468 4.60457 44.9468Z"
          fill="white"/>
    <path d="M81.8665 37.2068C81.0239 36.2661 79.8079 35.6701 78.4548 35.6701C77.1066 35.6701 75.8939 36.2611 75.0513 37.1968C74.3079 38.0193 73.8502 39.1115 73.8502 40.3102C73.8502 41.2326 74.1228 42.0916 74.5854 42.8159C75.4049 44.0945 76.8324 44.947 78.4531 44.947C80.1169 44.947 81.5757 44.0496 82.3836 42.711C82.8082 42.0101 83.0561 41.1893 83.0561 40.3102C83.0561 39.1165 82.6034 38.0309 81.8665 37.2068Z"
          fill="white"/>
</svg>
