<svg width="64" height="64" viewBox="0 0 64 64" fill="none" xmlns="http://www.w3.org/2000/svg">
<path d="M60.1112 14.4197C60.926 15.2345 61.3334 16.1767 61.3334 17.2461V46.9614C61.2825 48.0818 60.8751 49.0239 60.1112 49.7878C59.3473 50.5517 58.4306 50.9336 57.3612 50.9336H16.264C15.1945 50.9336 14.2779 50.5517 13.514 49.7878C12.7501 49.0239 12.3427 48.1072 12.2917 47.0378V39.3225H9.08341C8.67601 39.3225 8.30679 39.157 7.97578 38.826C7.64476 38.495 7.47925 38.1258 7.47925 37.7183C7.47925 37.26 7.64476 36.8653 7.97578 36.5343C8.30679 36.2033 8.67601 36.0378 9.08341 36.0378H25.9654C26.4237 36.0378 26.8056 36.2033 27.1112 36.5343C27.4167 36.8653 27.5695 37.26 27.5695 37.7183C27.5695 38.1258 27.4167 38.495 27.1112 38.826C26.8056 39.157 26.4237 39.3225 25.9654 39.3225H15.5765V46.9614C15.5765 47.3179 15.8311 47.5471 16.3404 47.6489H57.2848C57.7941 47.7508 58.0487 47.5216 58.0487 46.9614V19.5378L38.1112 39.4753L37.9584 39.6281C37.6529 39.9336 37.2709 40.0864 36.8126 40.0864C36.3542 40.0864 35.9723 39.9336 35.6667 39.6281L15.5765 19.6142V29.2392H21.1529C21.6112 29.2392 21.9931 29.392 22.2987 29.6975C22.6042 30.0031 22.757 30.385 22.757 30.8433C22.757 31.3017 22.6042 31.6836 22.2987 31.9892C21.9931 32.2947 21.6112 32.4475 21.1529 32.4475H4.27091C3.86351 32.4475 3.49429 32.2947 3.16328 31.9892C2.83226 31.6836 2.66675 31.3017 2.66675 30.8433C2.66675 30.385 2.83226 30.0031 3.16328 29.6975C3.49429 29.392 3.86351 29.2392 4.27091 29.2392H12.2917V17.2461C12.3936 16.0748 12.8265 15.1327 13.5904 14.4197C14.4052 13.7068 15.3473 13.3503 16.4167 13.3503H57.2848C58.3033 13.2484 59.2454 13.6049 60.1112 14.4197ZM36.8126 36.1906L56.3681 16.635H17.257L36.8126 36.1906Z" fill="#009530"/>
</svg>
