<svg width="64" height="64" viewBox="0 0 64 64" fill="none" xmlns="http://www.w3.org/2000/svg">
<path d="M33.2085 61.0278C32.9539 61.2315 32.6738 61.3334 32.3682 61.3334C32.0627 61.3334 31.7571 61.2315 31.4516 61.0278C31.0951 60.875 30.2293 60.4676 28.8543 59.8056C23.4562 57.4121 19.433 55.1968 16.7849 53.1597C16.1738 52.8542 15.8682 52.3704 15.8682 51.7084V44.0695C15.8682 40.8611 16.7594 37.9456 18.5418 35.3229C20.3242 32.7003 22.6668 30.7778 25.5696 29.5556C25.2131 29.1482 24.8566 28.6898 24.5002 28.1806C23.5835 26.6019 23.1252 24.8704 23.1252 22.9861C23.1252 20.338 24.0418 18.059 25.8752 16.1493C27.7085 14.2396 29.911 13.272 32.4828 13.2465C35.0546 13.2211 37.2316 14.2014 39.014 16.1875C40.7455 18.0718 41.6113 20.338 41.6113 22.9861C41.6113 24.8704 41.1275 26.6019 40.1599 28.1806C39.8543 28.6898 39.5233 29.1482 39.1668 29.5556C42.0696 30.7778 44.3995 32.7003 46.1564 35.3229C47.9134 37.9456 48.7918 40.8611 48.7918 44.0695V48.0417C49.5048 47.2778 50.1159 46.5139 50.6252 45.75C51.9492 43.5602 53.0059 41.1667 53.7953 38.5695C54.5847 35.9722 55.0812 33.9097 55.2849 32.382C55.4886 30.8542 55.6923 28.7917 55.896 26.1945C56.2015 22.3241 56.1252 18.4028 55.6668 14.4306C53.5279 14.1759 50.8543 13.6158 47.646 12.75C44.4377 11.8843 41.8659 10.9931 39.9307 10.0764C39.065 9.669 38.0719 9.21067 36.9516 8.70141C34.6599 7.68289 33.1321 6.919 32.3682 6.40974C31.6043 6.919 30.0766 7.68289 27.7849 8.70141C26.1043 9.4653 25.1113 9.92363 24.8057 10.0764C22.8705 10.9931 20.286 11.8843 17.0522 12.75C13.8184 13.6158 11.1576 14.1759 9.06961 14.4306C8.56035 18.4028 8.4585 22.3241 8.76405 26.1945C8.96776 28.4861 9.15873 30.3322 9.33697 31.7327C9.51521 33.1331 9.90988 34.9792 10.521 37.2709C11.1321 39.5625 11.9469 41.6759 12.9654 43.6111C13.1691 44.0185 13.1946 44.4387 13.0418 44.8715C12.8891 45.3044 12.609 45.6354 12.2016 45.8646C11.7941 46.0938 11.374 46.132 10.9411 45.9792C10.5083 45.8264 10.19 45.5463 9.98627 45.1389C8.91683 43.0509 8.03836 40.7593 7.35086 38.2639C6.66336 35.7685 6.23049 33.7952 6.05225 32.3438C5.87401 30.8924 5.7085 28.9445 5.55572 26.5C5.14831 21.9167 5.30109 17.3334 6.01405 12.75C6.06498 12.3426 6.23049 11.9989 6.51058 11.7188C6.79067 11.4387 7.13442 11.2986 7.54183 11.2986C8.8659 11.2477 11.3358 10.7639 14.9516 9.84724C18.5673 8.93058 21.3937 8.01391 23.4307 7.09724C23.7872 6.89354 24.7803 6.43521 26.4099 5.72224C29.0071 4.55095 30.5603 3.73613 31.0696 3.2778C31.4261 2.87039 31.859 2.66669 32.3682 2.66669C32.8775 2.66669 33.2849 2.87039 33.5904 3.2778C34.0997 3.73613 35.6529 4.55095 38.2502 5.72224C39.5233 6.2315 40.5418 6.68984 41.3057 7.09724C43.3428 8.01391 46.1564 8.93058 49.7467 9.84724C53.337 10.7639 55.7941 11.2477 57.1182 11.2986C57.5256 11.2986 57.8821 11.4387 58.1877 11.7188C58.4932 11.9989 58.6715 12.3426 58.7224 12.75C59.3844 17.2824 59.5372 21.8658 59.1807 26.5C58.977 29.1482 58.7606 31.2871 58.5314 32.9167C58.3022 34.5463 57.7548 36.7871 56.889 39.6389C56.0233 42.4908 54.8775 45.088 53.4515 47.4306C52.2803 49.3148 50.5742 51.1227 48.3335 52.8542C48.0279 53.2107 47.646 53.3889 47.1877 53.3889H47.1113C46.3474 53.3889 45.8381 53.007 45.5835 52.2431C45.4816 51.9884 45.4562 51.7084 45.5071 51.4028V44.0695C45.5071 41.0648 44.5522 38.4167 42.6425 36.125C40.7328 33.8334 38.3011 32.4329 35.3474 31.9236C34.5835 31.7709 34.1506 31.2998 34.0488 30.5104C33.9469 29.7211 34.227 29.1482 34.8891 28.7917C35.9585 28.2824 36.7988 27.5058 37.4099 26.4618C38.021 25.4178 38.3265 24.2593 38.3265 22.9861C38.3265 21.1528 37.7409 19.625 36.5696 18.4028C35.4492 17.1296 34.0997 16.4931 32.521 16.4931C30.8404 16.4931 29.4145 17.1296 28.2432 18.4028C27.021 19.6759 26.4099 21.2037 26.4099 22.9861C26.4099 24.2593 26.7154 25.4178 27.3266 26.4618C27.9377 27.5058 28.7525 28.2824 29.771 28.7917C30.484 29.1482 30.7768 29.7211 30.6495 30.5104C30.5222 31.2998 30.0766 31.7709 29.3127 31.9236C26.359 32.4329 23.9272 33.8334 22.0175 36.125C20.1078 38.4167 19.1529 41.0648 19.1529 44.0695V50.8681C21.5974 52.6505 25.2895 54.6366 30.2293 56.8264C31.146 57.2338 31.859 57.5648 32.3682 57.8195C32.8775 57.5648 33.5904 57.2338 34.5071 56.8264C37.1043 55.706 39.1159 54.7384 40.5418 53.9236C40.9492 53.7199 41.3694 53.6817 41.8022 53.809C42.2351 53.9364 42.5661 54.2037 42.7953 54.6111C43.0245 55.0185 43.0627 55.4387 42.9099 55.8715C42.7571 56.3044 42.5025 56.6227 42.146 56.8264C40.5164 57.6921 38.4284 58.6852 35.8821 59.8056C34.4562 60.4676 33.565 60.875 33.2085 61.0278Z" fill="#009530"/>
</svg>
