<svg width="13" height="13" viewBox="0 0 13 13" fill="none" xmlns="http://www.w3.org/2000/svg">
<path d="M11.7207 6.39113L11.7234 6.39809L11.7263 6.405C11.7513 6.46587 11.7513 6.53414 11.7263 6.595L11.7234 6.60191L11.7207 6.60887C11.7095 6.63786 11.6929 6.66448 11.672 6.68739L6.67967 11.6797L6.6775 11.6818C6.65426 11.7053 6.6266 11.7239 6.59614 11.7366C6.56568 11.7493 6.53301 11.7558 6.5 11.7558C6.46699 11.7558 6.43432 11.7493 6.40386 11.7366C6.3734 11.7239 6.34574 11.7053 6.3225 11.6818L6.32252 11.6818L6.31815 11.6775C6.29472 11.6543 6.27612 11.6266 6.26343 11.5961C6.25074 11.5657 6.2442 11.533 6.2442 11.5C6.2442 11.467 6.25074 11.4343 6.26343 11.4039C6.27612 11.3734 6.29472 11.3457 6.31815 11.3225L6.31952 11.3211L9.61952 8.03114L10.9046 6.75H9.09H1.5C1.4337 6.75 1.37011 6.72366 1.32322 6.67678C1.27634 6.62989 1.25 6.56631 1.25 6.5C1.25 6.4337 1.27634 6.37011 1.32322 6.32323C1.37011 6.27634 1.4337 6.25 1.5 6.25H9.09H10.9046L9.61952 4.96887L6.32033 1.67967C6.32023 1.67957 6.32013 1.67948 6.32004 1.67938C6.27257 1.63176 6.24591 1.56725 6.24591 1.5C6.24591 1.46663 6.25248 1.43359 6.26525 1.40277C6.27802 1.37194 6.29673 1.34393 6.32033 1.32033C6.36798 1.27268 6.43261 1.24591 6.5 1.24591C6.53337 1.24591 6.56641 1.25248 6.59724 1.26525C6.62807 1.27802 6.65608 1.29674 6.67967 1.32033L11.672 6.31262C11.6929 6.33552 11.7095 6.36215 11.7207 6.39113Z" fill="#0B3B6B" stroke="#0B3B6B" stroke-width="1.5"/>
</svg>
