<svg width="54" height="54" viewBox="0 0 54 54" fill="none" xmlns="http://www.w3.org/2000/svg">
<path d="M32.3335 16.3334H35.0002C35.7074 16.3334 36.3857 16.0524 36.8858 15.5523C37.3859 15.0522 37.6668 14.374 37.6668 13.6667C37.6668 12.9595 37.3859 12.2812 36.8858 11.7811C36.3857 11.281 35.7074 11 35.0002 11H32.3335C31.6263 11 30.948 11.281 30.4479 11.7811C29.9478 12.2812 29.6668 12.9595 29.6668 13.6667C29.6668 14.374 29.9478 15.0522 30.4479 15.5523C30.948 16.0524 31.6263 16.3334 32.3335 16.3334V16.3334ZM32.3335 27H35.0002C35.7074 27 36.3857 26.7191 36.8858 26.219C37.3859 25.7189 37.6668 25.0406 37.6668 24.3334C37.6668 23.6261 37.3859 22.9479 36.8858 22.4478C36.3857 21.9477 35.7074 21.6667 35.0002 21.6667H32.3335C31.6263 21.6667 30.948 21.9477 30.4479 22.4478C29.9478 22.9479 29.6668 23.6261 29.6668 24.3334C29.6668 25.0406 29.9478 25.7189 30.4479 26.219C30.948 26.7191 31.6263 27 32.3335 27V27ZM19.0002 16.3334H21.6668C22.3741 16.3334 23.0524 16.0524 23.5524 15.5523C24.0525 15.0522 24.3335 14.374 24.3335 13.6667C24.3335 12.9595 24.0525 12.2812 23.5524 11.7811C23.0524 11.281 22.3741 11 21.6668 11H19.0002C18.2929 11 17.6146 11.281 17.1145 11.7811C16.6144 12.2812 16.3335 12.9595 16.3335 13.6667C16.3335 14.374 16.6144 15.0522 17.1145 15.5523C17.6146 16.0524 18.2929 16.3334 19.0002 16.3334V16.3334ZM19.0002 27H21.6668C22.3741 27 23.0524 26.7191 23.5524 26.219C24.0525 25.7189 24.3335 25.0406 24.3335 24.3334C24.3335 23.6261 24.0525 22.9479 23.5524 22.4478C23.0524 21.9477 22.3741 21.6667 21.6668 21.6667H19.0002C18.2929 21.6667 17.6146 21.9477 17.1145 22.4478C16.6144 22.9479 16.3335 23.6261 16.3335 24.3334C16.3335 25.0406 16.6144 25.7189 17.1145 26.219C17.6146 26.7191 18.2929 27 19.0002 27V27ZM51.0002 48.3334H48.3335V3.00004C48.3335 2.2928 48.0525 1.61452 47.5525 1.11442C47.0524 0.614325 46.3741 0.333374 45.6668 0.333374H8.3335C7.62625 0.333374 6.94798 0.614325 6.44788 1.11442C5.94778 1.61452 5.66683 2.2928 5.66683 3.00004V48.3334H3.00016C2.29292 48.3334 1.61464 48.6143 1.11454 49.1144C0.614448 49.6145 0.333496 50.2928 0.333496 51C0.333496 51.7073 0.614448 52.3856 1.11454 52.8857C1.61464 53.3858 2.29292 53.6667 3.00016 53.6667H51.0002C51.7074 53.6667 52.3857 53.3858 52.8858 52.8857C53.3859 52.3856 53.6668 51.7073 53.6668 51C53.6668 50.2928 53.3859 49.6145 52.8858 49.1144C52.3857 48.6143 51.7074 48.3334 51.0002 48.3334ZM29.6668 48.3334H24.3335V37.6667H29.6668V48.3334ZM43.0002 48.3334H35.0002V35C35.0002 34.2928 34.7192 33.6145 34.2191 33.1144C33.719 32.6143 33.0407 32.3334 32.3335 32.3334H21.6668C20.9596 32.3334 20.2813 32.6143 19.7812 33.1144C19.2811 33.6145 19.0002 34.2928 19.0002 35V48.3334H11.0002V5.66671H43.0002V48.3334Z" fill="#0F84B2"/>
</svg>
