<svg width="244" height="114" viewBox="0 0 244 114" fill="none" xmlns="http://www.w3.org/2000/svg">
<g clip-path="url(#clip0_398_225556)">
<path d="M3.71502 104.62C3.71502 105.03 3.80502 105.39 3.94502 105.71C4.08502 106.03 4.30502 106.35 4.53502 106.57C4.80502 106.8 5.08502 106.98 5.44502 107.11C5.80502 107.25 6.17502 107.29 6.58502 107.29C7.49502 107.29 8.17502 106.97 8.72502 106.38C9.27502 105.79 9.54502 104.97 9.54502 103.97C9.54502 102.97 9.27502 102.11 8.72502 101.52C8.17502 100.93 7.49502 100.61 6.58502 100.61C5.90502 100.61 5.31502 100.79 4.81502 101.11C4.31502 101.43 3.95502 101.88 3.72502 102.47V104.61L3.71502 104.62ZM3.71502 108.21C3.71502 108.8 3.57502 109.21 3.30502 109.44C3.03502 109.67 2.66502 109.76 2.25502 109.76H1.89502C1.44502 109.76 1.07502 109.67 0.80502 109.44C0.53502 109.21 0.39502 108.8 0.39502 108.21V93.8099C0.39502 93.8099 0.53502 93.6699 0.75502 93.5799C0.98502 93.4899 1.29502 93.4399 1.61502 93.4399C1.84502 93.4399 2.11502 93.4899 2.34502 93.5799C2.57502 93.6699 2.79502 93.8099 2.98502 93.9899C3.16502 94.1699 3.34502 94.4399 3.48502 94.8099C3.62502 95.1699 3.66502 95.5799 3.66502 96.1299V99.9499C4.07502 99.3599 4.57502 98.9099 5.20502 98.5899C5.84502 98.2699 6.52502 98.0899 7.34502 98.0899C8.11502 98.0899 8.79502 98.2299 9.43502 98.4999C10.075 98.7699 10.615 99.1799 11.115 99.6799C11.565 100.18 11.935 100.82 12.205 101.54C12.475 102.27 12.615 103.08 12.615 103.99C12.615 104.9 12.475 105.72 12.255 106.44C11.985 107.17 11.615 107.8 11.165 108.35C10.715 108.85 10.115 109.3 9.48502 109.58C8.84502 109.9 8.12502 110.03 7.30502 110.03C6.39502 110.03 5.66502 109.85 5.03502 109.44C4.44502 109.08 3.94502 108.58 3.67502 108.03V108.21H3.72502H3.71502Z" fill="white"/>
<path d="M17.385 113.3C17.065 113.39 16.745 113.39 16.295 113.39C15.885 113.39 15.475 113.34 15.065 113.25C14.655 113.16 14.245 113.02 13.925 112.84C13.565 112.66 13.285 112.43 13.105 112.16C12.925 111.89 12.875 111.57 12.925 111.21C12.975 110.85 13.195 110.44 13.565 110.03C14.105 110.26 14.615 110.44 15.105 110.53C15.555 110.62 15.965 110.62 16.425 110.58C16.875 110.53 17.245 110.35 17.565 110.03C17.745 109.85 17.885 109.67 17.975 109.49C18.065 109.35 18.155 109.22 18.155 109.13C18.205 108.99 18.205 108.9 18.205 108.86C17.935 108.81 17.705 108.77 17.565 108.63C17.385 108.54 17.245 108.36 17.155 108.13L13.245 99.0398C13.245 99.0398 13.295 98.8998 13.385 98.8098C13.475 98.7198 13.615 98.5798 13.795 98.4898C13.975 98.3998 14.155 98.3098 14.385 98.2198C14.615 98.1298 14.835 98.0798 15.115 98.0798C15.525 98.0798 15.845 98.1698 16.165 98.3998C16.485 98.6298 16.755 99.0398 16.935 99.7198L19.435 106.22L21.615 99.7198C21.845 99.0398 22.065 98.6298 22.385 98.3998C22.705 98.1698 23.065 98.0798 23.435 98.0798C23.665 98.0798 23.885 98.1298 24.115 98.2198C24.345 98.3098 24.525 98.3998 24.705 98.4898C24.845 98.5798 24.975 98.7198 25.115 98.8098C25.205 98.8998 25.255 98.9898 25.255 99.0398L21.125 109.9C20.985 110.22 20.855 110.54 20.675 110.85C20.495 111.17 20.265 111.53 19.995 111.8C19.725 112.12 19.355 112.39 18.995 112.66C18.405 112.98 17.945 113.16 17.405 113.3" fill="white"/>
<path d="M44.3351 105.07C44.3351 106.07 44.0651 106.89 43.5651 107.61C43.0651 108.34 42.3351 108.88 41.4751 109.25C40.5651 109.66 39.5251 109.84 38.3851 109.84C38.0651 109.84 37.6551 109.79 37.2051 109.79C36.7051 109.74 36.1151 109.61 35.2951 109.43C34.5251 109.25 33.7051 108.98 32.8451 108.57V104.71C33.6651 105.21 34.4351 105.62 35.1651 105.94C35.9351 106.26 36.7551 106.44 37.6151 106.44C38.4351 106.44 38.9751 106.3 39.2051 106.03C39.4351 105.76 39.5651 105.53 39.5651 105.26C39.5651 104.85 39.3351 104.49 38.9751 104.17C38.5651 103.85 37.9751 103.58 37.2051 103.26C36.3451 102.9 35.5651 102.49 34.9351 102.08C34.2951 101.63 33.7551 101.13 33.3451 100.44C32.9351 99.8 32.7051 99.03 32.7051 98.12C32.7051 97.21 32.9351 96.48 33.3451 95.8C33.7551 95.12 34.3951 94.57 35.2551 94.16C36.1151 93.75 37.1651 93.52 38.3951 93.52C39.2551 93.52 40.0751 93.61 40.8451 93.79C41.6151 93.97 42.2051 94.15 42.7051 94.38C43.2051 94.61 43.5251 94.74 43.7051 94.88V98.61C43.0651 98.16 42.3451 97.75 41.5651 97.38C40.7951 97.02 39.9251 96.83 39.0251 96.83C38.4351 96.83 38.0251 96.92 37.7551 97.15C37.4851 97.38 37.3451 97.65 37.3451 98.01C37.3451 98.33 37.4851 98.6 37.7551 98.83C38.0251 99.06 38.4851 99.33 39.1651 99.65C40.3951 100.24 41.3451 100.74 42.0751 101.19C42.8051 101.64 43.3951 102.19 43.8051 102.78C44.1651 103.42 44.3551 104.14 44.3551 105.05" fill="white"/>
<path d="M56.8751 109.11C56.5151 109.25 56.1951 109.38 55.7851 109.47C55.4251 109.56 54.9651 109.65 54.5151 109.74C54.0151 109.83 53.5151 109.83 52.9751 109.83C51.7051 109.83 50.6151 109.6 49.7451 109.19C48.8851 108.78 48.2051 108.24 47.7051 107.55C47.2051 106.91 46.8851 106.23 46.7051 105.55C46.5251 104.87 46.4351 104.28 46.4351 103.78C46.4351 103.28 46.5251 102.69 46.7051 102.01C46.8851 101.33 47.2051 100.69 47.6551 100.06C48.1051 99.4198 48.7951 98.8798 49.6551 98.4698C50.5151 98.0598 51.6051 97.8298 52.8851 97.8298C53.7451 97.8298 54.4251 97.8798 54.9751 98.0098C55.5251 98.1498 56.0651 98.2798 56.6151 98.5098V101.74C55.2551 101.33 54.2551 101.1 53.4751 101.1C52.7451 101.1 52.1151 101.33 51.5251 101.78C50.9751 102.23 50.6651 102.92 50.6651 103.82C50.6651 104.41 50.8051 104.96 51.0751 105.36C51.3451 105.77 51.7151 106.09 52.1651 106.27C52.5751 106.45 53.0251 106.59 53.4851 106.59C53.8951 106.59 54.3451 106.54 54.8951 106.41C55.4451 106.27 56.0751 106.09 56.8051 105.86V109.09H56.8951L56.8751 109.11Z" fill="white"/>
<path d="M71.2252 109.66H67.1352V103.21C67.1352 102.66 66.9952 102.16 66.7752 101.67C66.5452 101.22 66.0952 100.99 65.4152 100.99C64.8652 100.99 64.4152 101.17 64.0552 101.49C63.6452 101.85 63.2852 102.26 62.9152 102.81V109.63H58.8252V93.8198H62.9152V99.7298C63.5952 98.9998 64.2752 98.4998 64.9152 98.2298C65.5552 97.9598 66.2752 97.8198 67.0052 97.8198C69.7752 97.8198 71.1852 99.3598 71.1852 102.5V109.68H71.2352L71.2252 109.66Z" fill="white"/>
<path d="M86.0849 109.66H81.9949V103.39C81.9949 102.75 81.9049 102.21 81.6749 101.71C81.4449 101.26 80.9949 100.98 80.3149 100.98C79.9949 100.98 79.6749 101.03 79.4549 101.16C79.1849 101.3 78.9549 101.43 78.7749 101.66C78.5449 101.84 78.4149 102.07 78.2749 102.25C78.1349 102.43 78.0049 102.61 77.8649 102.84V109.66H73.7749V98.0299H77.8649V99.7099C78.5049 99.0299 79.1349 98.5299 79.8149 98.2599C80.4549 97.9899 81.1749 97.8499 81.9949 97.8499C84.7649 97.8499 86.1749 99.5299 86.1749 102.85V109.67H86.0849V109.66Z" fill="white"/>
<path d="M96.6252 102.8C96.6252 102.07 96.4452 101.48 96.0752 101.03C95.7152 100.58 95.1652 100.35 94.4852 100.35C93.8052 100.35 93.2552 100.58 92.8052 101.03C92.3952 101.48 92.1652 102.08 92.1652 102.8H96.6152H96.6252ZM100.485 104.84H92.3052C92.4852 105.57 92.8552 106.11 93.4852 106.57C94.1252 107.02 94.8052 107.25 95.6252 107.25C96.9852 107.25 98.5352 106.84 100.215 106.07V108.61C99.6252 108.93 98.8952 109.2 98.0352 109.47C97.1752 109.74 96.0852 109.88 94.7652 109.88C93.3552 109.88 92.1352 109.61 91.1352 109.06C90.1352 108.52 89.3652 107.79 88.8652 106.88C88.3652 105.97 88.0952 104.93 88.0952 103.79C88.0952 102.65 88.3652 101.61 88.8652 100.75C89.3652 99.8398 90.1352 99.1598 91.1352 98.6098C92.1352 98.1098 93.3652 97.8398 94.7652 97.8398C95.7152 97.8398 96.6252 98.0198 97.4952 98.4298C98.3552 98.8398 99.0852 99.5198 99.6752 100.43C100.265 101.34 100.535 102.52 100.535 104.02V104.84H100.485Z" fill="white"/>
<path d="M106.485 95.3499C106.485 95.8499 106.305 96.2099 105.985 96.5799C105.625 96.8999 105.215 97.0799 104.755 97.0799C104.435 97.0799 104.165 96.9899 103.895 96.8499C103.625 96.7099 103.395 96.4899 103.255 96.2099C103.115 95.9399 103.025 95.6599 103.025 95.3499C103.025 94.8999 103.205 94.4899 103.525 94.1199C103.845 93.7999 104.255 93.6199 104.755 93.6199C105.205 93.6199 105.615 93.7999 105.985 94.1199C106.305 94.4799 106.485 94.8899 106.485 95.3499ZM106.805 109.66H102.715V98.0299H106.805V109.66Z" fill="white"/>
<path d="M117.845 105.98V101.53C117.345 101.26 116.985 101.08 116.705 100.98C116.435 100.84 116.115 100.8 115.755 100.8C115.115 100.8 114.575 101.07 114.115 101.62C113.665 102.17 113.475 102.94 113.475 103.85C113.475 104.9 113.705 105.62 114.155 106.08C114.605 106.53 115.155 106.76 115.745 106.76C116.245 106.76 116.655 106.67 116.925 106.53C117.245 106.39 117.515 106.21 117.835 105.98M121.925 109.66H117.835V108.61C117.385 108.97 116.925 109.29 116.475 109.52C115.975 109.75 115.335 109.88 114.475 109.88C113.615 109.88 112.795 109.65 111.975 109.24C111.155 108.83 110.475 108.15 109.975 107.29C109.425 106.38 109.205 105.29 109.205 103.93C109.205 102.88 109.385 101.89 109.795 100.98C110.205 100.03 110.795 99.2999 111.655 98.7099C112.515 98.1199 113.515 97.8499 114.745 97.8499C115.515 97.8499 116.105 97.9399 116.605 98.0799C117.105 98.2199 117.515 98.4399 117.875 98.7199V93.8599H121.965V109.67H121.915L121.925 109.66Z" fill="white"/>
<path d="M132.615 102.8C132.615 102.07 132.435 101.48 132.065 101.03C131.705 100.58 131.155 100.35 130.475 100.35C129.795 100.35 129.245 100.58 128.795 101.03C128.385 101.48 128.155 102.08 128.155 102.8H132.605H132.615ZM136.435 104.84H128.255C128.395 105.57 128.805 106.11 129.435 106.57C130.075 107.02 130.755 107.25 131.575 107.25C132.985 107.25 134.485 106.84 136.165 106.07V108.61C135.575 108.93 134.845 109.2 133.985 109.47C133.125 109.74 132.035 109.88 130.715 109.88C129.265 109.88 128.085 109.61 127.085 109.06C126.085 108.52 125.315 107.79 124.815 106.88C124.315 105.97 124.085 104.93 124.085 103.79C124.085 102.65 124.315 101.61 124.815 100.75C125.315 99.8398 126.085 99.1598 127.085 98.6098C128.085 98.1098 129.315 97.8398 130.715 97.8398C131.665 97.8398 132.575 98.0198 133.445 98.4298C134.305 98.8398 135.035 99.5198 135.625 100.43C136.215 101.34 136.485 102.52 136.485 104.02V104.84H136.435Z" fill="white"/>
<path d="M148.655 98.6598L147.155 102.75C146.515 102.16 145.885 101.84 145.245 101.84C144.655 101.84 144.155 102.02 143.745 102.43C143.335 102.84 142.925 103.57 142.515 104.61V109.61H138.425V97.9798H142.515V100.8C142.785 100.12 143.245 99.4398 143.875 98.7998C144.515 98.1598 145.285 97.7998 146.195 97.7998C146.645 97.7998 147.055 97.8498 147.425 97.9798C147.745 98.1598 148.195 98.3898 148.655 98.6598Z" fill="white"/>
<path d="M159.785 96.1699H167.415V97.8899H161.695V102.03H167.235V103.75H161.695V107.93H167.595V109.66H159.785V96.1699Z" fill="white"/>
<path d="M174.955 96.1699H173.185V109.66H174.955V96.1699Z" fill="white"/>
<path d="M182.595 104.3H187.045C186.995 103.57 186.775 103.03 186.405 102.66C186.045 102.3 185.545 102.07 184.905 102.07C184.265 102.07 183.765 102.25 183.365 102.66C183.005 103.07 182.725 103.61 182.595 104.3ZM188.815 105.35H182.595C182.645 106.21 182.915 106.89 183.455 107.39C183.955 107.89 184.635 108.16 185.455 108.16C186.595 108.16 187.685 107.8 188.635 107.11V108.79C188.085 109.15 187.545 109.38 187.045 109.56C186.495 109.7 185.905 109.79 185.185 109.79C184.235 109.79 183.415 109.61 182.825 109.2C182.235 108.79 181.735 108.25 181.375 107.56C181.015 106.88 180.835 106.06 180.835 105.2C180.835 103.84 181.195 102.75 181.975 101.88C182.745 101.02 183.745 100.61 184.975 100.61C186.205 100.61 187.115 101.02 187.795 101.84C188.475 102.66 188.845 103.75 188.845 105.16V105.34L188.815 105.35Z" fill="white"/>
<path d="M201.125 107.62V109.35C200.265 109.67 199.355 109.85 198.535 109.85C197.125 109.85 196.035 109.44 195.175 108.62C194.355 107.8 193.945 106.71 193.945 105.3C193.945 103.89 194.355 102.76 195.175 101.89C195.995 101.03 197.035 100.62 198.405 100.62C198.855 100.62 199.265 100.67 199.635 100.76C199.995 100.85 200.455 101.03 200.995 101.26V103.12C200.085 102.53 199.265 102.26 198.495 102.26C197.675 102.26 197.045 102.53 196.545 103.12C195.995 103.67 195.775 104.39 195.775 105.26C195.775 106.17 196.045 106.9 196.595 107.44C197.145 107.99 197.915 108.26 198.825 108.26C199.505 108.21 200.275 107.99 201.145 107.62" fill="white"/>
<path d="M205.625 102.16L208.945 98.9299V100.79H211.715V102.33H208.945V106.69C208.945 107.69 209.355 108.23 210.175 108.23C210.815 108.23 211.445 108 212.175 107.59V109.23C211.495 109.59 210.765 109.82 209.995 109.82C209.175 109.82 208.545 109.59 207.995 109.09C207.815 108.95 207.675 108.77 207.585 108.59C207.445 108.41 207.355 108.18 207.315 107.91C207.225 107.64 207.225 107.09 207.225 106.27V102.32H205.675V102.14H205.625V102.16Z" fill="white"/>
<path d="M219.075 100.8V102.8L219.165 102.66C220.025 101.3 220.895 100.62 221.755 100.62C222.435 100.62 223.115 100.94 223.845 101.62L222.895 103.16C222.305 102.57 221.715 102.3 221.165 102.3C220.575 102.3 220.115 102.57 219.715 103.12C219.305 103.67 219.075 104.3 219.075 105.03V109.66H217.305V100.8H219.075Z" fill="white"/>
<path d="M228.845 100.8H230.615V109.66H228.845V100.8ZM229.705 97.03C229.975 97.03 230.255 97.12 230.475 97.35C230.705 97.53 230.795 97.8 230.795 98.08C230.795 98.36 230.705 98.63 230.475 98.81C230.245 99.04 230.025 99.13 229.705 99.13C229.435 99.13 229.205 99.04 228.975 98.81C228.745 98.58 228.655 98.36 228.655 98.08C228.655 97.8 228.745 97.58 228.975 97.35C229.205 97.17 229.425 97.03 229.705 97.03Z" fill="white"/>
<path d="M243.565 107.62V109.35C242.705 109.67 241.795 109.85 240.975 109.85C239.565 109.85 238.475 109.44 237.615 108.62C236.795 107.8 236.385 106.71 236.385 105.3C236.385 103.89 236.795 102.76 237.615 101.89C238.435 101.03 239.475 100.62 240.795 100.62C241.245 100.62 241.655 100.67 242.025 100.76C242.385 100.85 242.845 101.03 243.385 101.26V103.12C242.475 102.53 241.655 102.26 240.885 102.26C240.065 102.26 239.435 102.53 238.935 103.12C238.435 103.67 238.165 104.39 238.165 105.26C238.165 106.17 238.435 106.9 238.985 107.44C239.535 107.99 240.305 108.26 241.215 108.26C241.895 108.21 242.665 107.99 243.575 107.62" fill="white"/>
<path d="M243.565 80.04H0.39502V80.6H243.565V80.04Z" fill="white"/>
<path d="M87.645 55.53V60.45H64.895L78.655 38.15H65.635V33.22H88.095L74.365 55.53H87.645Z" fill="white"/>
<path d="M97.5048 40.79C104.215 40.79 107.165 46.01 106.645 52.39H93.1048C93.7348 54.82 95.9748 56.12 99.1148 56.12C101.205 56.12 103.595 55.41 105.195 54.25V59.21C103.255 60.4 100.645 60.89 98.3648 60.89C92.3248 60.89 87.6548 56.71 87.6548 50.89C87.6548 45.07 92.3148 40.78 97.5048 40.78M93.2548 48.69H101.275C101.085 47.12 99.8148 45.41 97.4348 45.41C95.4548 45.41 93.8948 46.64 93.2548 48.69Z" fill="white"/>
<path d="M135.505 58.66C135.505 65.75 129.875 68.73 124.015 68.73C121.335 68.73 118.715 68.06 117.115 67.05V61.34C119.125 63.02 121.555 63.61 123.905 63.61C126.925 63.61 129.685 62.19 129.685 59.02V57.49C128.645 58.72 126.625 59.92 123.975 59.92C119.055 59.92 114.875 55.89 114.875 50.37C114.875 44.85 119.055 40.78 123.975 40.78C126.625 40.78 128.635 42.05 129.685 43.24V41.23H135.505V58.65V58.66ZM125.215 45.83C122.755 45.83 120.665 47.7 120.665 50.38C120.665 53.06 122.755 54.97 125.215 54.97C127.675 54.97 129.765 53.07 129.765 50.38C129.765 47.69 127.675 45.83 125.215 45.83Z" fill="white"/>
<path d="M136.275 50.8698C136.275 45.0498 141.015 40.7998 146.605 40.7998C152.195 40.7998 156.975 45.0498 156.975 50.8698C156.975 56.6898 152.235 60.8998 146.605 60.8998C140.975 60.8998 136.275 56.6798 136.275 50.8698ZM142.015 50.8698C142.015 53.8198 143.995 55.9098 146.605 55.9098C149.215 55.9098 151.195 53.8198 151.195 50.8698C151.195 47.9198 149.255 45.7998 146.605 45.7998C143.955 45.7998 142.015 47.8898 142.015 50.8698Z" fill="white"/>
<path d="M153.455 33.6199H156.515V34.2899H155.345V37.3399H154.615V34.2899H153.445V33.6199H153.455ZM160.765 33.6199V37.3399H160.035V36.1399C160.035 35.7899 160.035 35.3799 160.045 34.9599L159.955 35.2099L159.155 37.3399H158.555L157.755 35.2099C157.715 35.1099 157.685 35.0199 157.655 34.9299C157.665 35.3699 157.665 35.7799 157.665 36.1399V37.3399H156.955V33.6199H157.875L158.605 35.5599C158.705 35.8099 158.795 36.0699 158.865 36.2999C158.935 36.0699 159.025 35.7899 159.125 35.4999L159.835 33.6199H160.755H160.765Z" fill="white"/>
<path d="M113.705 60.4499H107.885V41.2399H113.705V60.4499ZM110.795 32.1599C108.965 32.1599 107.475 33.6499 107.475 35.4799C107.475 37.3099 108.965 38.7999 110.795 38.7999C112.625 38.7999 114.115 37.3099 114.115 35.4799C114.115 33.6499 112.625 32.1599 110.795 32.1599Z" fill="white"/>
<path d="M67.855 25.0899C68.645 24.7699 69.315 24.1399 69.645 23.2899C70.285 21.6599 69.465 19.8199 67.855 19.1299L23.865 0.299921C22.895 -0.110079 21.755 -0.120079 20.715 0.389921C18.935 1.26992 18.175 3.39992 18.915 5.23992L26.415 24.7599C26.415 24.7799 26.445 24.8199 26.455 24.8499C27.335 26.9099 29.725 27.8699 31.785 26.9899C33.845 26.1099 34.805 23.7199 33.925 21.6599L29.815 11.4599C29.695 11.1799 29.975 10.8999 30.255 11.0099L57.415 21.8899C57.695 21.9999 57.695 22.3999 57.415 22.5199L1.86498 45.2499C1.29498 45.4999 0.814984 45.9599 0.564984 46.5799C0.0649843 47.8299 0.674984 49.2499 1.91498 49.7499L48.865 68.5999C49.315 68.7799 49.825 68.7899 50.305 68.5799C51.265 68.1699 51.705 67.0599 51.295 66.1099L40.225 43.2299C39.885 42.4299 38.955 42.0399 38.135 42.3699C37.305 42.6999 36.905 43.6399 37.235 44.4699L45.715 62.4999C45.845 62.7799 45.555 63.0699 45.275 62.9499L10.005 47.8899C9.72498 47.7699 9.73498 47.3699 10.015 47.2599L67.835 25.0899H67.855Z" fill="white"/>
<path d="M179.825 60.67H178.215L169.655 49.54V60.66H167.865V46.49H169.475L178.045 57.62V46.5H179.825V60.67Z" fill="white"/>
<path d="M186.205 50.8499C187.515 50.8499 188.595 51.3099 189.445 52.2399C190.285 53.1599 190.715 54.3599 190.725 55.8299C190.725 55.8599 190.715 56.0599 190.695 56.4499H183.135C183.245 57.4099 183.605 58.1499 184.205 58.6599C184.805 59.1699 185.535 59.4199 186.395 59.4199C187.505 59.4199 188.485 59.0399 189.355 58.2799L190.235 59.4099C189.195 60.3799 187.885 60.8699 186.295 60.8699C184.855 60.8699 183.685 60.4099 182.785 59.4799C181.875 58.5599 181.425 57.3499 181.425 55.8599C181.425 54.3699 181.875 53.1899 182.775 52.2499C183.675 51.3099 184.815 50.8499 186.195 50.8499H186.205ZM186.175 52.3199C185.355 52.3199 184.675 52.5699 184.145 53.0799C183.615 53.5899 183.285 54.2599 183.165 55.1099H189.045C188.935 54.2499 188.625 53.5699 188.115 53.0699C187.605 52.5699 186.965 52.3199 186.175 52.3199Z" fill="white"/>
<path d="M198.735 52.56H194.695V57.24C194.695 57.93 194.855 58.45 195.195 58.8C195.525 59.14 195.965 59.32 196.505 59.32C197.175 59.32 197.825 59.1 198.465 58.67L199.245 59.91C198.375 60.54 197.415 60.86 196.365 60.86C195.315 60.86 194.485 60.56 193.905 59.96C193.325 59.36 193.035 58.46 193.035 57.26V52.55H190.985V51.04H193.035V48.03H194.695V51.04H198.735V52.55V52.56Z" fill="white"/>
<path d="M211.455 58.9298L214.185 51.0498H215.915L212.455 60.6598H210.485L207.735 52.8398L204.995 60.6598H203.055L199.595 51.0498H201.365L204.085 58.9098L206.825 51.0498H208.695L211.455 58.9298Z" fill="white"/>
<path d="M217.385 52.2799C218.345 51.3299 219.555 50.8499 221.015 50.8499C222.475 50.8499 223.685 51.3299 224.655 52.2799C225.625 53.2299 226.105 54.4299 226.105 55.8599C226.105 57.2899 225.625 58.4799 224.655 59.4399C223.685 60.3899 222.475 60.8699 221.015 60.8699C219.555 60.8699 218.345 60.3899 217.385 59.4399C216.425 58.4899 215.935 57.2899 215.935 55.8599C215.935 54.4299 216.415 53.2399 217.385 52.2799ZM221.015 52.4099C220.045 52.4099 219.235 52.7399 218.595 53.3899C217.955 54.0399 217.625 54.8599 217.625 55.8599C217.625 56.8599 217.945 57.6899 218.595 58.3399C219.235 58.9899 220.045 59.3199 221.015 59.3199C221.985 59.3199 222.785 58.9899 223.435 58.3399C224.085 57.6899 224.405 56.8599 224.405 55.8599C224.405 54.8599 224.085 54.0399 223.435 53.3899C222.785 52.7399 221.985 52.4099 221.015 52.4099Z" fill="white"/>
<path d="M232.015 50.8498C232.725 50.8498 233.305 50.9498 233.775 51.1598L233.375 52.7898C232.905 52.5398 232.365 52.4198 231.725 52.4198C230.985 52.4198 230.385 52.6798 229.915 53.2098C229.445 53.7398 229.225 54.4398 229.225 55.3098V60.6598H227.575V51.0498H229.205V52.3098C229.545 51.8398 229.955 51.4798 230.435 51.2198C230.915 50.9598 231.445 50.8398 232.015 50.8398V50.8498Z" fill="white"/>
<path d="M236.575 54.8999H237.885L241.455 51.0599H243.535L239.245 55.5899L243.595 60.6699H241.505L237.875 56.3999H236.575V60.6699H234.925V46.1099H236.575V54.9099V54.8999Z" fill="white"/>
</g>
<defs>
<clipPath id="clip0_398_225556">
<rect width="243.21" height="113.39" fill="white" transform="translate(0.39502)"/>
</clipPath>
</defs>
</svg>
