<svg width="56" height="52" viewBox="0 0 56 52" fill="none" xmlns="http://www.w3.org/2000/svg">
<path d="M6 2V32C6 33.5913 6.63214 35.1174 7.75736 36.2426C8.88258 37.3679 10.4087 38 12 38H18M6 2H2M6 2H50M18 38H38M18 38L15.3333 46M50 2H54M50 2V32C50 33.5913 49.3679 35.1174 48.2426 36.2426C47.1174 37.3679 45.5913 38 44 38H38M38 38L40.6667 46M15.3333 46H40.6667M15.3333 46L14 50M40.6667 46L42 50M16 26L24 18L29.728 23.728C32.4192 19.8648 35.9257 16.6395 40 14.28" stroke="#0F84B2" stroke-width="4" stroke-linecap="round" stroke-linejoin="round"/>
</svg>
