<svg width="44" height="48" viewBox="0 0 44 48" fill="none" xmlns="http://www.w3.org/2000/svg">
<path d="M12.3406 43.8519H31.6591L34.5035 32.5926H9.49613L12.3406 43.8519ZM12.3406 47.4074C11.5505 47.4074 10.8295 47.1605 10.1776 46.6667C9.52576 46.1728 9.10107 45.5309 8.90354 44.7407L5.82206 32.5926H38.1776L35.0961 44.7407C34.8986 45.5309 34.4739 46.1728 33.8221 46.6667C33.1702 47.1605 32.4492 47.4074 31.6591 47.4074H12.3406ZM4.22206 29.037H39.7776V23.1111H4.22206V29.037ZM21.9998 14.163C22.1974 10.7259 23.7381 7.55556 26.6221 4.65185C29.506 1.74815 32.6863 0.197531 36.1628 0C36.0443 3.2 34.7208 6.17284 32.1924 8.91852C29.664 11.6642 26.8591 13.3333 23.7776 13.9259V19.5556H43.3332V29.037C43.3332 30.0247 42.9875 30.8642 42.2961 31.5556C41.6048 32.2469 40.7653 32.5926 39.7776 32.5926H4.22206C3.23441 32.5926 2.3949 32.2469 1.70354 31.5556C1.01218 30.8642 0.666504 30.0247 0.666504 29.037V19.5556H20.2221V13.9259C17.1406 13.3333 14.3455 11.6642 11.8369 8.91852C9.32823 6.17284 7.9949 3.2 7.83687 0C11.3134 0.197531 14.5035 1.73827 17.4072 4.62222C20.3109 7.50617 21.8418 10.6864 21.9998 14.163Z" fill="#0F84B2"/>
</svg>
